%TF.GenerationSoftware,KiCad,Pcbnew,9.0.2*%
%TF.CreationDate,2025-07-03T01:09:01+02:00*%
%TF.ProjectId,Satisfactron_2025,53617469-7366-4616-9374-726f6e5f3230,rev?*%
%TF.SameCoordinates,Original*%
%TF.FileFunction,Soldermask,Bot*%
%TF.FilePolarity,Negative*%
%FSLAX46Y46*%
G04 Gerber Fmt 4.6, Leading zero omitted, Abs format (unit mm)*
G04 Created by KiCad (PCBNEW 9.0.2) date 2025-07-03 01:09:01*
%MOMM*%
%LPD*%
G01*
G04 APERTURE LIST*
%ADD10C,6.200000*%
%ADD11R,1.700000X1.700000*%
%ADD12C,1.700000*%
%ADD13C,0.900025*%
%ADD14C,3.200000*%
%ADD15C,1.200000*%
%ADD16C,5.500000*%
%ADD17O,1.700000X1.700000*%
%ADD18C,0.750013*%
%ADD19O,2.000000X1.200000*%
%ADD20O,1.800000X1.200000*%
%ADD21C,1.524003*%
%ADD22R,2.200000X1.600000*%
%ADD23R,1.800000X0.900000*%
%ADD24C,1.600000*%
G04 APERTURE END LIST*
D10*
%TO.C,H1*%
X373422872Y162498290D03*
%TD*%
%TO.C,H15*%
X242030512Y161485786D03*
%TD*%
D11*
%TO.C,J12*%
X-3000000Y153500000D03*
D12*
X-3000000Y156040000D03*
X-3000000Y158579999D03*
%TD*%
D10*
%TO.C,H9*%
X70020512Y82985786D03*
%TD*%
D13*
%TO.C,SW18*%
X-12714999Y106699950D03*
X-12714999Y105099746D03*
%TD*%
D14*
%TO.C,REF\u002A\u002A*%
X371202872Y91898290D03*
%TD*%
D13*
%TO.C,SW16*%
X-12714999Y118099798D03*
X-12714999Y116499594D03*
%TD*%
D15*
%TO.C,J3*%
X389926353Y91698330D03*
X389926353Y99698330D03*
%TD*%
D10*
%TO.C,H17*%
X269530512Y110985786D03*
%TD*%
%TO.C,H13*%
X171020512Y161485786D03*
%TD*%
D13*
%TO.C,SW20*%
X-12714999Y95300102D03*
X-12714999Y93699898D03*
%TD*%
D14*
%TO.C,REF\u002A\u002A*%
X382302872Y117398290D03*
%TD*%
D10*
%TO.C,H5*%
X56520512Y110985786D03*
%TD*%
D11*
%TO.C,J6*%
X378422872Y126000000D03*
D12*
X375882872Y126000000D03*
X373342873Y126000000D03*
X370802872Y126000000D03*
X368262872Y126000000D03*
X365722872Y126000000D03*
%TD*%
D16*
%TO.C,U3*%
X378024360Y144598290D03*
%TD*%
D13*
%TO.C,SW15*%
X7002872Y106798290D03*
X7002872Y105198086D03*
%TD*%
D11*
%TO.C,J5*%
X388688853Y85358305D03*
D17*
X388688853Y82818305D03*
X388688853Y80278305D03*
X388688853Y77738305D03*
%TD*%
D18*
%TO.C,J1*%
X387972233Y120548368D03*
X387972233Y126348216D03*
D19*
X387472106Y119123171D03*
X387472106Y127773413D03*
D20*
X391651938Y127773413D03*
X391651938Y119123171D03*
%TD*%
D10*
%TO.C,H3*%
X363722872Y91898290D03*
%TD*%
%TO.C,H14*%
X283030512Y82985786D03*
%TD*%
%TO.C,H12*%
X141020512Y82985786D03*
%TD*%
%TO.C,H18*%
X340530512Y110985786D03*
%TD*%
D13*
%TO.C,SW12*%
X220037873Y106798392D03*
X220037873Y105198188D03*
%TD*%
D10*
%TO.C,H16*%
X212030512Y82985786D03*
%TD*%
D13*
%TO.C,SW11*%
X291037873Y106798392D03*
X291037873Y105198188D03*
%TD*%
D10*
%TO.C,H6*%
X-969488Y82985786D03*
%TD*%
D13*
%TO.C,SW10*%
X295471357Y82629805D03*
X296602872Y81498290D03*
%TD*%
%TO.C,SW14*%
X78002872Y106798494D03*
X78002872Y105198290D03*
%TD*%
D10*
%TO.C,H8*%
X100020512Y161485786D03*
%TD*%
D13*
%TO.C,SW17*%
X-12714999Y112399874D03*
X-12714999Y110799670D03*
%TD*%
D10*
%TO.C,H10*%
X127520512Y110985786D03*
%TD*%
D13*
%TO.C,SW13*%
X149037873Y106798392D03*
X149037873Y105198188D03*
%TD*%
D21*
%TO.C,SW1*%
X388226404Y109748305D03*
X388226404Y112248432D03*
X388226404Y114748305D03*
X391426302Y109748305D03*
X391426302Y112248432D03*
X391426302Y114748305D03*
%TD*%
D10*
%TO.C,H11*%
X198520512Y110985786D03*
%TD*%
D13*
%TO.C,SW9*%
X224451824Y82578757D03*
X225583339Y81447242D03*
%TD*%
D10*
%TO.C,H19*%
X313030512Y161485786D03*
%TD*%
D13*
%TO.C,SW4*%
X82471357Y82629805D03*
X83602872Y81498290D03*
%TD*%
%TO.C,SW19*%
X-12714999Y101000026D03*
X-12714999Y99399822D03*
%TD*%
D10*
%TO.C,H7*%
X29030512Y161485786D03*
%TD*%
D13*
%TO.C,SW3*%
X11502872Y82636394D03*
X12634387Y81504879D03*
%TD*%
%TO.C,SW8*%
X153471357Y82629805D03*
X154602872Y81498290D03*
%TD*%
D11*
%TO.C,J11*%
X350162872Y122498290D03*
D12*
X352702872Y122498290D03*
X355242871Y122498290D03*
%TD*%
D22*
%TO.C,J2*%
X382175858Y88598317D03*
X382175858Y85598317D03*
D23*
X377476848Y87115462D03*
%TD*%
D24*
%TO.C,C11*%
X356202872Y162248291D03*
X356202872Y164748291D03*
%TD*%
%TO.C,C22*%
X350749999Y117250000D03*
X348249999Y117250000D03*
%TD*%
D22*
%TO.C,J4*%
X382195858Y95198317D03*
X382195858Y92198317D03*
D23*
X377496848Y93715462D03*
%TD*%
M02*
