M48
; DRILL file {KiCad 9.0.2} date 2025-07-03T01:09:01+0200
; FORMAT={-:-/ absolute / inch / decimal}
; #@! TF.CreationDate,2025-07-03T01:09:01+02:00
; #@! TF.GenerationSoftware,Kicad,Pcbnew,9.0.2
; #@! TF.FileFunction,Plated,1,2,PTH
FMAT,2
INCH
; #@! TA.AperFunction,Plated,PTH,ViaDrill
T1C0.0118
; #@! TA.AperFunction,Plated,PTH,ViaDrill
T2C0.0177
; #@! TA.AperFunction,Plated,PTH,ComponentDrill
T3C0.0315
; #@! TA.AperFunction,Plated,PTH,ComponentDrill
T4C0.0360
; #@! TA.AperFunction,Plated,PTH,ComponentDrill
T5C0.0394
; #@! TA.AperFunction,Plated,PTH,ComponentDrill
T6C0.1496
; #@! TA.AperFunction,Plated,PTH,ComponentDrill
T7C0.1654
%
G90
G05
T1
X0.374Y3.4055
X3.0315Y3.7008
X5.4429Y5.3937
X5.5709Y5.9449
X5.6398Y4.1142
X5.6545Y5.8514
X5.6791Y5.8169
X5.8071Y3.7402
X8.5925Y3.7992
X11.3878Y3.8484
X13.5946Y4.3385
X13.6169Y4.3162
X13.6391Y4.2939
X13.6614Y4.2717
X13.6725Y4.2408
X13.7992Y5.1378
X13.9272Y5.1181
X13.9353Y4.6277
X13.9432Y4.3442
X13.9862Y5.5118
X14.0385Y5.5199
X14.071Y5.3625
X14.1043Y5.4232
X14.1437Y5.3642
X14.2126Y5.3937
X14.3602Y5.7579
X14.3996Y4.1437
X14.5394Y5.8661
X14.5472Y5.6299
X14.563Y5.3543
X14.5748Y6.0748
X14.5787Y5.8189
X14.5866Y5.6496
X14.5984Y6.0512
X14.6618Y5.8661
X14.8031Y5.9134
X14.9646Y5.8543
X14.9685Y5.5472
X14.9803Y3.878
X15.0026Y3.8557
X15.0157Y5.8543
X15.0249Y3.8334
X15.0491Y5.9157
X15.052Y3.8174
X15.1673Y4.873
X15.1673Y4.8277
X15.3179Y5.0984
X15.3514Y5.0984
X15.4145Y4.6074
T2
X-0.1181Y4.9213
X1.6535Y6.2697
X1.9488Y5.0689
X2.3524Y5.824
X2.6673Y4.9213
X3.937Y5.9843
X3.937Y5.8366
X4.2421Y5.0098
X4.2913Y6.2598
X5.4626Y4.9213
X5.7874Y4.4193
X5.876Y4.3012
X6.752Y5.9744
X7.2933Y6.25
X7.687Y5.8268
X7.7657Y5.0394
X7.7756Y4.8425
X8.2579Y4.9213
X8.4252Y4.7343
X8.4843Y4.439
X8.563Y3.6024
X8.75Y3.1299
X9.8425Y6.2598
X11.0728Y4.9213
X11.1024Y4.6654
X11.1713Y5.9547
X11.1713Y5.8366
X11.1713Y5.2067
X11.2665Y4.4259
X11.3091Y4.813
X11.5256Y3.1299
X12.5197Y6.2598
X13.2382Y6.3386
X13.8091Y6.2205
X13.9863Y5.2353
X14.0453Y5.2657
X14.0748Y6.3091
X14.1054Y5.2461
X14.2028Y6.0433
X14.2028Y4.4783
X14.2126Y5.1083
X14.2618Y4.498
X14.2618Y3.937
X14.2717Y5.0787
X14.2913Y5.8465
X14.4094Y4.8524
X14.4193Y3.9272
X14.4257Y4.2663
X14.498Y4.8524
X14.498Y4.5571
X14.5768Y3.9173
X14.5808Y4.6369
X14.5958Y6.1804
X14.6052Y4.5343
X14.752Y4.0472
X14.7835Y4.7736
X14.8031Y4.6358
X14.9016Y4.8701
X14.9311Y3.4547
X15.0276Y5.3543
X15.0984Y3.9862
X15.128Y6.1713
X15.2264Y3.8583
T3
X13.7106Y4.6161
X13.8091Y4.6161
X14.0237Y6.4862
X14.0237Y6.3877
T4
X15.2845Y4.5176
X15.2845Y4.4192
X15.2845Y4.3208
X15.4105Y4.5176
X15.4105Y4.4192
X15.4105Y4.3208
T5
X-0.1181Y6.2433
X-0.1181Y6.1433
X-0.1181Y6.0433
X13.7859Y4.8228
X13.8859Y4.8228
X13.9859Y4.8228
X14.3985Y4.9606
X14.4985Y4.9606
X14.5985Y4.9606
X14.6985Y4.9606
X14.7985Y4.9606
X14.8985Y4.9606
X15.3027Y3.3606
X15.3027Y3.2606
X15.3027Y3.1606
X15.3027Y3.0606
T6
X14.8828Y5.6928
T7
X-0.0382Y3.2672
X1.1429Y6.3577
X2.2252Y4.3695
X2.7567Y3.2672
X3.9378Y6.3577
X5.0205Y4.3695
X5.552Y3.2672
X6.7331Y6.3577
X7.8158Y4.3695
X8.3477Y3.2672
X9.5288Y6.3577
X10.6114Y4.3695
X11.1429Y3.2672
X12.324Y6.3577
X13.4067Y4.3695
X14.3198Y3.618
X14.7017Y6.3976
T3
G00X15.2391Y5.0304
M15
G01X15.2706Y5.0304
M16
G05
G00X15.2391Y4.6899
M15
G01X15.2706Y4.6899
M16
G05
G00X15.4076Y5.0304
M15
G01X15.4312Y5.0304
M16
G05
G00X15.4076Y4.6899
M15
G01X15.4312Y4.6899
M16
G05
M30
