%TF.GenerationSoftware,KiCad,Pcbnew,9.0.2*%
%TF.CreationDate,2025-07-03T01:21:56+02:00*%
%TF.ProjectId,Satisfactron_2025,53617469-7366-4616-9374-726f6e5f3230,rev?*%
%TF.SameCoordinates,Original*%
%TF.FileFunction,Soldermask,Top*%
%TF.FilePolarity,Negative*%
%FSLAX46Y46*%
G04 Gerber Fmt 4.6, Leading zero omitted, Abs format (unit mm)*
G04 Created by KiCad (PCBNEW 9.0.2) date 2025-07-03 01:21:56*
%MOMM*%
%LPD*%
G01*
G04 APERTURE LIST*
G04 Aperture macros list*
%AMRoundRect*
0 Rectangle with rounded corners*
0 $1 Rounding radius*
0 $2 $3 $4 $5 $6 $7 $8 $9 X,Y pos of 4 corners*
0 Add a 4 corners polygon primitive as box body*
4,1,4,$2,$3,$4,$5,$6,$7,$8,$9,$2,$3,0*
0 Add four circle primitives for the rounded corners*
1,1,$1+$1,$2,$3*
1,1,$1+$1,$4,$5*
1,1,$1+$1,$6,$7*
1,1,$1+$1,$8,$9*
0 Add four rect primitives between the rounded corners*
20,1,$1+$1,$2,$3,$4,$5,0*
20,1,$1+$1,$4,$5,$6,$7,0*
20,1,$1+$1,$6,$7,$8,$9,0*
20,1,$1+$1,$8,$9,$2,$3,0*%
%AMRotRect*
0 Rectangle, with rotation*
0 The origin of the aperture is its center*
0 $1 length*
0 $2 width*
0 $3 Rotation angle, in degrees counterclockwise*
0 Add horizontal line*
21,1,$1,$2,0,0,$3*%
%AMFreePoly0*
4,1,23,0.500000,-0.750000,0.000000,-0.750000,0.000000,-0.745722,-0.065263,-0.745722,-0.191342,-0.711940,-0.304381,-0.646677,-0.396677,-0.554381,-0.461940,-0.441342,-0.495722,-0.315263,-0.495722,-0.250000,-0.500000,-0.250000,-0.500000,0.250000,-0.495722,0.250000,-0.495722,0.315263,-0.461940,0.441342,-0.396677,0.554381,-0.304381,0.646677,-0.191342,0.711940,-0.065263,0.745722,0.000000,0.745722,
0.000000,0.750000,0.500000,0.750000,0.500000,-0.750000,0.500000,-0.750000,$1*%
%AMFreePoly1*
4,1,23,0.000000,0.745722,0.065263,0.745722,0.191342,0.711940,0.304381,0.646677,0.396677,0.554381,0.461940,0.441342,0.495722,0.315263,0.495722,0.250000,0.500000,0.250000,0.500000,-0.250000,0.495722,-0.250000,0.495722,-0.315263,0.461940,-0.441342,0.396677,-0.554381,0.304381,-0.646677,0.191342,-0.711940,0.065263,-0.745722,0.000000,-0.745722,0.000000,-0.750000,-0.500000,-0.750000,
-0.500000,0.750000,0.000000,0.750000,0.000000,0.745722,0.000000,0.745722,$1*%
%AMFreePoly2*
4,1,23,0.550000,-0.750000,0.000000,-0.750000,0.000000,-0.745722,-0.065263,-0.745722,-0.191342,-0.711940,-0.304381,-0.646677,-0.396677,-0.554381,-0.461940,-0.441342,-0.495722,-0.315263,-0.495722,-0.250000,-0.500000,-0.250000,-0.500000,0.250000,-0.495722,0.250000,-0.495722,0.315263,-0.461940,0.441342,-0.396677,0.554381,-0.304381,0.646677,-0.191342,0.711940,-0.065263,0.745722,0.000000,0.745722,
0.000000,0.750000,0.550000,0.750000,0.550000,-0.750000,0.550000,-0.750000,$1*%
%AMFreePoly3*
4,1,23,0.000000,0.745722,0.065263,0.745722,0.191342,0.711940,0.304381,0.646677,0.396677,0.554381,0.461940,0.441342,0.495722,0.315263,0.495722,0.250000,0.500000,0.250000,0.500000,-0.250000,0.495722,-0.250000,0.495722,-0.315263,0.461940,-0.441342,0.396677,-0.554381,0.304381,-0.646677,0.191342,-0.711940,0.065263,-0.745722,0.000000,-0.745722,0.000000,-0.750000,-0.550000,-0.750000,
-0.550000,0.750000,0.000000,0.750000,0.000000,0.745722,0.000000,0.745722,$1*%
G04 Aperture macros list end*
%ADD10C,0.000000*%
%ADD11C,6.200000*%
%ADD12O,1.864999X0.629997*%
%ADD13RoundRect,0.200000X-0.200000X-0.275000X0.200000X-0.275000X0.200000X0.275000X-0.200000X0.275000X0*%
%ADD14RoundRect,0.200000X0.053033X-0.335876X0.335876X-0.053033X-0.053033X0.335876X-0.335876X0.053033X0*%
%ADD15RoundRect,0.237500X-0.237500X0.300000X-0.237500X-0.300000X0.237500X-0.300000X0.237500X0.300000X0*%
%ADD16RoundRect,0.237500X0.237500X-0.300000X0.237500X0.300000X-0.237500X0.300000X-0.237500X-0.300000X0*%
%ADD17RoundRect,0.200000X0.200000X0.275000X-0.200000X0.275000X-0.200000X-0.275000X0.200000X-0.275000X0*%
%ADD18RoundRect,0.225000X-0.250000X0.225000X-0.250000X-0.225000X0.250000X-0.225000X0.250000X0.225000X0*%
%ADD19RoundRect,0.237500X0.237500X-0.250000X0.237500X0.250000X-0.237500X0.250000X-0.237500X-0.250000X0*%
%ADD20RotRect,0.800000X1.800000X225.000000*%
%ADD21R,1.700000X1.700000*%
%ADD22C,1.700000*%
%ADD23FreePoly0,270.000000*%
%ADD24FreePoly1,270.000000*%
%ADD25RoundRect,0.218750X0.218750X0.256250X-0.218750X0.256250X-0.218750X-0.256250X0.218750X-0.256250X0*%
%ADD26RoundRect,0.218750X-0.218750X-0.256250X0.218750X-0.256250X0.218750X0.256250X-0.218750X0.256250X0*%
%ADD27RotRect,0.529997X0.440005X135.000000*%
%ADD28RotRect,0.880010X1.000000X315.000000*%
%ADD29R,0.800000X0.770003*%
%ADD30R,0.829997X0.800000*%
%ADD31R,0.770003X0.800000*%
%ADD32RoundRect,0.250000X0.159099X-0.512652X0.512652X-0.159099X-0.159099X0.512652X-0.512652X0.159099X0*%
%ADD33RoundRect,0.250000X-0.250000X-0.475000X0.250000X-0.475000X0.250000X0.475000X-0.250000X0.475000X0*%
%ADD34R,1.600000X0.700000*%
%ADD35R,1.500000X1.200000*%
%ADD36R,2.200000X1.200000*%
%ADD37R,1.500000X1.600000*%
%ADD38RotRect,0.529997X0.440005X225.000000*%
%ADD39RotRect,0.880010X1.000000X45.000000*%
%ADD40R,1.359995X1.229997*%
%ADD41RoundRect,0.200000X0.275000X-0.200000X0.275000X0.200000X-0.275000X0.200000X-0.275000X-0.200000X0*%
%ADD42R,0.900000X1.500000*%
%ADD43R,1.500000X0.900000*%
%ADD44R,0.900000X0.900000*%
%ADD45C,5.500000*%
%ADD46RoundRect,0.237500X-0.237500X0.250000X-0.237500X-0.250000X0.237500X-0.250000X0.237500X0.250000X0*%
%ADD47O,1.700000X1.700000*%
%ADD48O,2.000000X1.200000*%
%ADD49O,1.800000X1.200000*%
%ADD50R,1.300000X0.300000*%
%ADD51RoundRect,0.250000X0.250000X0.475000X-0.250000X0.475000X-0.250000X-0.475000X0.250000X-0.475000X0*%
%ADD52R,0.800000X2.200000*%
%ADD53RoundRect,0.375000X-0.625000X-0.375000X0.625000X-0.375000X0.625000X0.375000X-0.625000X0.375000X0*%
%ADD54RoundRect,0.500000X-0.500000X-1.400000X0.500000X-1.400000X0.500000X1.400000X-0.500000X1.400000X0*%
%ADD55RoundRect,0.250000X0.475000X-0.250000X0.475000X0.250000X-0.475000X0.250000X-0.475000X-0.250000X0*%
%ADD56RoundRect,0.237500X0.250000X0.237500X-0.250000X0.237500X-0.250000X-0.237500X0.250000X-0.237500X0*%
%ADD57RotRect,0.800000X0.770003X45.000000*%
%ADD58RotRect,0.800000X0.829997X135.000000*%
%ADD59RotRect,0.800000X0.829997X315.000000*%
%ADD60RotRect,0.800000X0.770003X315.000000*%
%ADD61R,2.200000X1.600000*%
%ADD62R,1.800000X0.900000*%
%ADD63R,0.450013X0.650013*%
%ADD64R,1.900000X1.100000*%
%ADD65C,1.524003*%
%ADD66RoundRect,0.200000X-0.275000X0.200000X-0.275000X-0.200000X0.275000X-0.200000X0.275000X0.200000X0*%
%ADD67RoundRect,0.150000X-0.587500X-0.150000X0.587500X-0.150000X0.587500X0.150000X-0.587500X0.150000X0*%
%ADD68RoundRect,0.250000X-0.300000X0.300000X-0.300000X-0.300000X0.300000X-0.300000X0.300000X0.300000X0*%
%ADD69FreePoly2,90.000000*%
%ADD70R,1.500000X1.000000*%
%ADD71FreePoly3,90.000000*%
%ADD72RoundRect,0.237500X-0.300000X-0.237500X0.300000X-0.237500X0.300000X0.237500X-0.300000X0.237500X0*%
%ADD73C,1.600000*%
G04 APERTURE END LIST*
D10*
%TO.C,JP6*%
G36*
X375450000Y155100000D02*
G01*
X373950000Y155100000D01*
X373950000Y155400000D01*
X375450000Y155400000D01*
X375450000Y155100000D01*
G37*
%TO.C,G\u002A\u002A\u002A*%
G36*
X96638367Y137777476D02*
G01*
X96663077Y137730664D01*
X96701468Y137656074D01*
X96752122Y137556515D01*
X96813622Y137434793D01*
X96884550Y137293717D01*
X96963489Y137136094D01*
X97049022Y136964731D01*
X97139730Y136782436D01*
X97163121Y136735338D01*
X97688575Y135676973D01*
X98706123Y135532828D01*
X98901978Y135505092D01*
X99091089Y135478329D01*
X99269429Y135453107D01*
X99432970Y135429995D01*
X99577686Y135409562D01*
X99699550Y135392376D01*
X99794534Y135379007D01*
X99858611Y135370022D01*
X99877342Y135367416D01*
X99947507Y135356243D01*
X100000863Y135344964D01*
X100028818Y135335503D01*
X100031012Y135332984D01*
X100018081Y135317965D01*
X99980788Y135279112D01*
X99921370Y135218664D01*
X99842072Y135138860D01*
X99745134Y135041940D01*
X99632797Y134930144D01*
X99507305Y134805711D01*
X99370897Y134670883D01*
X99225816Y134527899D01*
X99191219Y134493859D01*
X99021264Y134326675D01*
X98875970Y134183565D01*
X98753429Y134062482D01*
X98651740Y133961381D01*
X98569002Y133878217D01*
X98503307Y133810941D01*
X98452755Y133757507D01*
X98415443Y133715870D01*
X98389465Y133683982D01*
X98372921Y133659799D01*
X98363907Y133641271D01*
X98360519Y133626355D01*
X98360854Y133613004D01*
X98362416Y133602707D01*
X98371061Y133552605D01*
X98383778Y133480267D01*
X98398030Y133400116D01*
X98400110Y133388500D01*
X98431636Y133212277D01*
X98459962Y133053354D01*
X98484317Y132916094D01*
X98503927Y132804860D01*
X98518019Y132724013D01*
X98522252Y132699313D01*
X98531947Y132643133D01*
X98546183Y132561805D01*
X98562934Y132466852D01*
X98577882Y132382660D01*
X98619961Y132145906D01*
X98655662Y131943819D01*
X98685317Y131774421D01*
X98709258Y131635736D01*
X98727820Y131525787D01*
X98741334Y131442596D01*
X98750135Y131384188D01*
X98754556Y131348584D01*
X98754928Y131333808D01*
X98754655Y131333266D01*
X98744796Y131335465D01*
X98717807Y131347246D01*
X98671347Y131369806D01*
X98603070Y131404338D01*
X98510631Y131452040D01*
X98391688Y131514107D01*
X98243897Y131591735D01*
X98121778Y131656101D01*
X98054776Y131691303D01*
X97963744Y131738914D01*
X97857734Y131794214D01*
X97745794Y131852479D01*
X97665424Y131894228D01*
X97540685Y131958993D01*
X97396670Y132033813D01*
X97247144Y132111533D01*
X97105871Y132185001D01*
X97032118Y132223376D01*
X96929352Y132276358D01*
X96835850Y132323623D01*
X96757391Y132362325D01*
X96699751Y132389618D01*
X96668708Y132402656D01*
X96667296Y132403064D01*
X96638436Y132398753D01*
X96582333Y132377398D01*
X96497850Y132338472D01*
X96383851Y132281448D01*
X96239205Y132205801D01*
X96220258Y132195726D01*
X96095272Y132129184D01*
X95969969Y132062505D01*
X95851720Y131999611D01*
X95747893Y131944419D01*
X95665862Y131900851D01*
X95635120Y131884544D01*
X95543719Y131836043D01*
X95447325Y131784812D01*
X95361205Y131738969D01*
X95327780Y131721144D01*
X95267705Y131689136D01*
X95183140Y131644154D01*
X95082510Y131590680D01*
X94974238Y131533187D01*
X94890053Y131488515D01*
X94792381Y131436672D01*
X94706001Y131390763D01*
X94636322Y131353666D01*
X94588759Y131328266D01*
X94568743Y131317455D01*
X94557204Y131325601D01*
X94554785Y131343124D01*
X94557805Y131367400D01*
X94566486Y131424933D01*
X94580263Y131512251D01*
X94598570Y131625882D01*
X94620842Y131762354D01*
X94646513Y131918193D01*
X94675017Y132089929D01*
X94705790Y132274088D01*
X94724024Y132382660D01*
X94756568Y132576401D01*
X94787800Y132762950D01*
X94817068Y132938351D01*
X94843715Y133098646D01*
X94867085Y133239879D01*
X94886523Y133358095D01*
X94901374Y133449337D01*
X94910981Y133509648D01*
X94913486Y133526096D01*
X94933719Y133663692D01*
X94832723Y133758305D01*
X94796690Y133792482D01*
X94737520Y133849115D01*
X94658822Y133924729D01*
X94564203Y134015847D01*
X94457273Y134118994D01*
X94341641Y134230693D01*
X94220915Y134347470D01*
X94200866Y134366879D01*
X94073254Y134490409D01*
X93944673Y134614839D01*
X93819762Y134735685D01*
X93703165Y134848457D01*
X93599519Y134948663D01*
X93513470Y135031819D01*
X93450943Y135092189D01*
X93378149Y135163277D01*
X93316519Y135225104D01*
X93270339Y135273237D01*
X93243894Y135303241D01*
X93239413Y135311074D01*
X93260368Y135317403D01*
X93307652Y135326502D01*
X93365343Y135335558D01*
X93429904Y135344979D01*
X93519708Y135358322D01*
X93623176Y135373857D01*
X93728730Y135389854D01*
X93735200Y135390839D01*
X93849802Y135408160D01*
X93972054Y135426389D01*
X94086753Y135443274D01*
X94172926Y135455738D01*
X94252098Y135467159D01*
X94358296Y135482666D01*
X94481704Y135500813D01*
X94612506Y135520159D01*
X94731726Y135537892D01*
X94862448Y135557364D01*
X94996591Y135577286D01*
X95123818Y135596128D01*
X95233794Y135612358D01*
X95309153Y135623420D01*
X95395621Y135636521D01*
X95470899Y135648777D01*
X95525803Y135658645D01*
X95548863Y135663773D01*
X95567725Y135683004D01*
X95600175Y135733775D01*
X95646502Y135816622D01*
X95706994Y135932076D01*
X95781941Y136080671D01*
X95853774Y136226368D01*
X95934918Y136392284D01*
X96025225Y136576968D01*
X96119539Y136769876D01*
X96212706Y136960469D01*
X96299572Y137138200D01*
X96371856Y137286128D01*
X96433984Y137412711D01*
X96490996Y137527765D01*
X96540829Y137627214D01*
X96581419Y137706979D01*
X96610701Y137762983D01*
X96626614Y137791147D01*
X96628758Y137793705D01*
X96638367Y137777476D01*
G37*
G36*
X170638367Y137777476D02*
G01*
X170663077Y137730664D01*
X170701468Y137656074D01*
X170752122Y137556515D01*
X170813622Y137434793D01*
X170884550Y137293717D01*
X170963489Y137136094D01*
X171049022Y136964731D01*
X171139730Y136782436D01*
X171163121Y136735338D01*
X171688575Y135676973D01*
X172706123Y135532828D01*
X172901978Y135505092D01*
X173091089Y135478329D01*
X173269429Y135453107D01*
X173432970Y135429995D01*
X173577686Y135409562D01*
X173699550Y135392376D01*
X173794534Y135379007D01*
X173858611Y135370022D01*
X173877342Y135367416D01*
X173947507Y135356243D01*
X174000863Y135344964D01*
X174028818Y135335503D01*
X174031012Y135332984D01*
X174018081Y135317965D01*
X173980788Y135279112D01*
X173921370Y135218664D01*
X173842072Y135138860D01*
X173745134Y135041940D01*
X173632797Y134930144D01*
X173507305Y134805711D01*
X173370897Y134670883D01*
X173225816Y134527899D01*
X173191219Y134493859D01*
X173021264Y134326675D01*
X172875970Y134183565D01*
X172753429Y134062482D01*
X172651740Y133961381D01*
X172569002Y133878217D01*
X172503307Y133810941D01*
X172452755Y133757507D01*
X172415443Y133715870D01*
X172389465Y133683982D01*
X172372921Y133659799D01*
X172363907Y133641271D01*
X172360519Y133626355D01*
X172360854Y133613004D01*
X172362416Y133602707D01*
X172371061Y133552605D01*
X172383778Y133480267D01*
X172398030Y133400116D01*
X172400110Y133388500D01*
X172431636Y133212277D01*
X172459962Y133053354D01*
X172484317Y132916094D01*
X172503927Y132804860D01*
X172518019Y132724013D01*
X172522252Y132699313D01*
X172531947Y132643133D01*
X172546183Y132561805D01*
X172562934Y132466852D01*
X172577882Y132382660D01*
X172619961Y132145906D01*
X172655662Y131943819D01*
X172685317Y131774421D01*
X172709258Y131635736D01*
X172727820Y131525787D01*
X172741334Y131442596D01*
X172750135Y131384188D01*
X172754556Y131348584D01*
X172754928Y131333808D01*
X172754655Y131333266D01*
X172744796Y131335465D01*
X172717807Y131347246D01*
X172671347Y131369806D01*
X172603070Y131404338D01*
X172510631Y131452040D01*
X172391688Y131514107D01*
X172243897Y131591735D01*
X172121778Y131656101D01*
X172054776Y131691303D01*
X171963744Y131738914D01*
X171857734Y131794214D01*
X171745794Y131852479D01*
X171665424Y131894228D01*
X171540685Y131958993D01*
X171396670Y132033813D01*
X171247144Y132111533D01*
X171105871Y132185001D01*
X171032118Y132223376D01*
X170929352Y132276358D01*
X170835850Y132323623D01*
X170757391Y132362325D01*
X170699751Y132389618D01*
X170668708Y132402656D01*
X170667296Y132403064D01*
X170638436Y132398753D01*
X170582333Y132377398D01*
X170497850Y132338472D01*
X170383851Y132281448D01*
X170239205Y132205801D01*
X170220258Y132195726D01*
X170095272Y132129184D01*
X169969969Y132062505D01*
X169851720Y131999611D01*
X169747893Y131944419D01*
X169665862Y131900851D01*
X169635120Y131884544D01*
X169543719Y131836043D01*
X169447325Y131784812D01*
X169361205Y131738969D01*
X169327780Y131721144D01*
X169267705Y131689136D01*
X169183140Y131644154D01*
X169082510Y131590680D01*
X168974238Y131533187D01*
X168890053Y131488515D01*
X168792381Y131436672D01*
X168706001Y131390763D01*
X168636322Y131353666D01*
X168588759Y131328266D01*
X168568743Y131317455D01*
X168557204Y131325601D01*
X168554785Y131343124D01*
X168557805Y131367400D01*
X168566486Y131424933D01*
X168580263Y131512251D01*
X168598570Y131625882D01*
X168620842Y131762354D01*
X168646513Y131918193D01*
X168675017Y132089929D01*
X168705790Y132274088D01*
X168724024Y132382660D01*
X168756568Y132576401D01*
X168787800Y132762950D01*
X168817068Y132938351D01*
X168843715Y133098646D01*
X168867085Y133239879D01*
X168886523Y133358095D01*
X168901374Y133449337D01*
X168910981Y133509648D01*
X168913486Y133526096D01*
X168933719Y133663692D01*
X168832723Y133758305D01*
X168796690Y133792482D01*
X168737520Y133849115D01*
X168658822Y133924729D01*
X168564203Y134015847D01*
X168457273Y134118994D01*
X168341641Y134230693D01*
X168220915Y134347470D01*
X168200866Y134366879D01*
X168073254Y134490409D01*
X167944673Y134614839D01*
X167819762Y134735685D01*
X167703165Y134848457D01*
X167599519Y134948663D01*
X167513470Y135031819D01*
X167450943Y135092189D01*
X167378149Y135163277D01*
X167316519Y135225104D01*
X167270339Y135273237D01*
X167243894Y135303241D01*
X167239413Y135311074D01*
X167260368Y135317403D01*
X167307652Y135326502D01*
X167365343Y135335558D01*
X167429904Y135344979D01*
X167519708Y135358322D01*
X167623176Y135373857D01*
X167728730Y135389854D01*
X167735200Y135390839D01*
X167849802Y135408160D01*
X167972054Y135426389D01*
X168086753Y135443274D01*
X168172926Y135455738D01*
X168252098Y135467159D01*
X168358296Y135482666D01*
X168481704Y135500813D01*
X168612506Y135520159D01*
X168731726Y135537892D01*
X168862448Y135557364D01*
X168996591Y135577286D01*
X169123818Y135596128D01*
X169233794Y135612358D01*
X169309153Y135623420D01*
X169395621Y135636521D01*
X169470899Y135648777D01*
X169525803Y135658645D01*
X169548863Y135663773D01*
X169567725Y135683004D01*
X169600175Y135733775D01*
X169646502Y135816622D01*
X169706994Y135932076D01*
X169781941Y136080671D01*
X169853774Y136226368D01*
X169934918Y136392284D01*
X170025225Y136576968D01*
X170119539Y136769876D01*
X170212706Y136960469D01*
X170299572Y137138200D01*
X170371856Y137286128D01*
X170433984Y137412711D01*
X170490996Y137527765D01*
X170540829Y137627214D01*
X170581419Y137706979D01*
X170610701Y137762983D01*
X170626614Y137791147D01*
X170628758Y137793705D01*
X170638367Y137777476D01*
G37*
G36*
X252638367Y137777476D02*
G01*
X252663077Y137730664D01*
X252701468Y137656074D01*
X252752122Y137556515D01*
X252813622Y137434793D01*
X252884550Y137293717D01*
X252963489Y137136094D01*
X253049022Y136964731D01*
X253139730Y136782436D01*
X253163121Y136735338D01*
X253688575Y135676973D01*
X254706123Y135532828D01*
X254901978Y135505092D01*
X255091089Y135478329D01*
X255269429Y135453107D01*
X255432970Y135429995D01*
X255577686Y135409562D01*
X255699550Y135392376D01*
X255794534Y135379007D01*
X255858611Y135370022D01*
X255877342Y135367416D01*
X255947507Y135356243D01*
X256000863Y135344964D01*
X256028818Y135335503D01*
X256031012Y135332984D01*
X256018081Y135317965D01*
X255980788Y135279112D01*
X255921370Y135218664D01*
X255842072Y135138860D01*
X255745134Y135041940D01*
X255632797Y134930144D01*
X255507305Y134805711D01*
X255370897Y134670883D01*
X255225816Y134527899D01*
X255191219Y134493859D01*
X255021264Y134326675D01*
X254875970Y134183565D01*
X254753429Y134062482D01*
X254651740Y133961381D01*
X254569002Y133878217D01*
X254503307Y133810941D01*
X254452755Y133757507D01*
X254415443Y133715870D01*
X254389465Y133683982D01*
X254372921Y133659799D01*
X254363907Y133641271D01*
X254360519Y133626355D01*
X254360854Y133613004D01*
X254362416Y133602707D01*
X254371061Y133552605D01*
X254383778Y133480267D01*
X254398030Y133400116D01*
X254400110Y133388500D01*
X254431636Y133212277D01*
X254459962Y133053354D01*
X254484317Y132916094D01*
X254503927Y132804860D01*
X254518019Y132724013D01*
X254522252Y132699313D01*
X254531947Y132643133D01*
X254546183Y132561805D01*
X254562934Y132466852D01*
X254577882Y132382660D01*
X254619961Y132145906D01*
X254655662Y131943819D01*
X254685317Y131774421D01*
X254709258Y131635736D01*
X254727820Y131525787D01*
X254741334Y131442596D01*
X254750135Y131384188D01*
X254754556Y131348584D01*
X254754928Y131333808D01*
X254754655Y131333266D01*
X254744796Y131335465D01*
X254717807Y131347246D01*
X254671347Y131369806D01*
X254603070Y131404338D01*
X254510631Y131452040D01*
X254391688Y131514107D01*
X254243897Y131591735D01*
X254121778Y131656101D01*
X254054776Y131691303D01*
X253963744Y131738914D01*
X253857734Y131794214D01*
X253745794Y131852479D01*
X253665424Y131894228D01*
X253540685Y131958993D01*
X253396670Y132033813D01*
X253247144Y132111533D01*
X253105871Y132185001D01*
X253032118Y132223376D01*
X252929352Y132276358D01*
X252835850Y132323623D01*
X252757391Y132362325D01*
X252699751Y132389618D01*
X252668708Y132402656D01*
X252667296Y132403064D01*
X252638436Y132398753D01*
X252582333Y132377398D01*
X252497850Y132338472D01*
X252383851Y132281448D01*
X252239205Y132205801D01*
X252220258Y132195726D01*
X252095272Y132129184D01*
X251969969Y132062505D01*
X251851720Y131999611D01*
X251747893Y131944419D01*
X251665862Y131900851D01*
X251635120Y131884544D01*
X251543719Y131836043D01*
X251447325Y131784812D01*
X251361205Y131738969D01*
X251327780Y131721144D01*
X251267705Y131689136D01*
X251183140Y131644154D01*
X251082510Y131590680D01*
X250974238Y131533187D01*
X250890053Y131488515D01*
X250792381Y131436672D01*
X250706001Y131390763D01*
X250636322Y131353666D01*
X250588759Y131328266D01*
X250568743Y131317455D01*
X250557204Y131325601D01*
X250554785Y131343124D01*
X250557805Y131367400D01*
X250566486Y131424933D01*
X250580263Y131512251D01*
X250598570Y131625882D01*
X250620842Y131762354D01*
X250646513Y131918193D01*
X250675017Y132089929D01*
X250705790Y132274088D01*
X250724024Y132382660D01*
X250756568Y132576401D01*
X250787800Y132762950D01*
X250817068Y132938351D01*
X250843715Y133098646D01*
X250867085Y133239879D01*
X250886523Y133358095D01*
X250901374Y133449337D01*
X250910981Y133509648D01*
X250913486Y133526096D01*
X250933719Y133663692D01*
X250832723Y133758305D01*
X250796690Y133792482D01*
X250737520Y133849115D01*
X250658822Y133924729D01*
X250564203Y134015847D01*
X250457273Y134118994D01*
X250341641Y134230693D01*
X250220915Y134347470D01*
X250200866Y134366879D01*
X250073254Y134490409D01*
X249944673Y134614839D01*
X249819762Y134735685D01*
X249703165Y134848457D01*
X249599519Y134948663D01*
X249513470Y135031819D01*
X249450943Y135092189D01*
X249378149Y135163277D01*
X249316519Y135225104D01*
X249270339Y135273237D01*
X249243894Y135303241D01*
X249239413Y135311074D01*
X249260368Y135317403D01*
X249307652Y135326502D01*
X249365343Y135335558D01*
X249429904Y135344979D01*
X249519708Y135358322D01*
X249623176Y135373857D01*
X249728730Y135389854D01*
X249735200Y135390839D01*
X249849802Y135408160D01*
X249972054Y135426389D01*
X250086753Y135443274D01*
X250172926Y135455738D01*
X250252098Y135467159D01*
X250358296Y135482666D01*
X250481704Y135500813D01*
X250612506Y135520159D01*
X250731726Y135537892D01*
X250862448Y135557364D01*
X250996591Y135577286D01*
X251123818Y135596128D01*
X251233794Y135612358D01*
X251309153Y135623420D01*
X251395621Y135636521D01*
X251470899Y135648777D01*
X251525803Y135658645D01*
X251548863Y135663773D01*
X251567725Y135683004D01*
X251600175Y135733775D01*
X251646502Y135816622D01*
X251706994Y135932076D01*
X251781941Y136080671D01*
X251853774Y136226368D01*
X251934918Y136392284D01*
X252025225Y136576968D01*
X252119539Y136769876D01*
X252212706Y136960469D01*
X252299572Y137138200D01*
X252371856Y137286128D01*
X252433984Y137412711D01*
X252490996Y137527765D01*
X252540829Y137627214D01*
X252581419Y137706979D01*
X252610701Y137762983D01*
X252626614Y137791147D01*
X252628758Y137793705D01*
X252638367Y137777476D01*
G37*
G36*
X312638367Y137777476D02*
G01*
X312663077Y137730664D01*
X312701468Y137656074D01*
X312752122Y137556515D01*
X312813622Y137434793D01*
X312884550Y137293717D01*
X312963489Y137136094D01*
X313049022Y136964731D01*
X313139730Y136782436D01*
X313163121Y136735338D01*
X313688575Y135676973D01*
X314706123Y135532828D01*
X314901978Y135505092D01*
X315091089Y135478329D01*
X315269429Y135453107D01*
X315432970Y135429995D01*
X315577686Y135409562D01*
X315699550Y135392376D01*
X315794534Y135379007D01*
X315858611Y135370022D01*
X315877342Y135367416D01*
X315947507Y135356243D01*
X316000863Y135344964D01*
X316028818Y135335503D01*
X316031012Y135332984D01*
X316018081Y135317965D01*
X315980788Y135279112D01*
X315921370Y135218664D01*
X315842072Y135138860D01*
X315745134Y135041940D01*
X315632797Y134930144D01*
X315507305Y134805711D01*
X315370897Y134670883D01*
X315225816Y134527899D01*
X315191219Y134493859D01*
X315021264Y134326675D01*
X314875970Y134183565D01*
X314753429Y134062482D01*
X314651740Y133961381D01*
X314569002Y133878217D01*
X314503307Y133810941D01*
X314452755Y133757507D01*
X314415443Y133715870D01*
X314389465Y133683982D01*
X314372921Y133659799D01*
X314363907Y133641271D01*
X314360519Y133626355D01*
X314360854Y133613004D01*
X314362416Y133602707D01*
X314371061Y133552605D01*
X314383778Y133480267D01*
X314398030Y133400116D01*
X314400110Y133388500D01*
X314431636Y133212277D01*
X314459962Y133053354D01*
X314484317Y132916094D01*
X314503927Y132804860D01*
X314518019Y132724013D01*
X314522252Y132699313D01*
X314531947Y132643133D01*
X314546183Y132561805D01*
X314562934Y132466852D01*
X314577882Y132382660D01*
X314619961Y132145906D01*
X314655662Y131943819D01*
X314685317Y131774421D01*
X314709258Y131635736D01*
X314727820Y131525787D01*
X314741334Y131442596D01*
X314750135Y131384188D01*
X314754556Y131348584D01*
X314754928Y131333808D01*
X314754655Y131333266D01*
X314744796Y131335465D01*
X314717807Y131347246D01*
X314671347Y131369806D01*
X314603070Y131404338D01*
X314510631Y131452040D01*
X314391688Y131514107D01*
X314243897Y131591735D01*
X314121778Y131656101D01*
X314054776Y131691303D01*
X313963744Y131738914D01*
X313857734Y131794214D01*
X313745794Y131852479D01*
X313665424Y131894228D01*
X313540685Y131958993D01*
X313396670Y132033813D01*
X313247144Y132111533D01*
X313105871Y132185001D01*
X313032118Y132223376D01*
X312929352Y132276358D01*
X312835850Y132323623D01*
X312757391Y132362325D01*
X312699751Y132389618D01*
X312668708Y132402656D01*
X312667296Y132403064D01*
X312638436Y132398753D01*
X312582333Y132377398D01*
X312497850Y132338472D01*
X312383851Y132281448D01*
X312239205Y132205801D01*
X312220258Y132195726D01*
X312095272Y132129184D01*
X311969969Y132062505D01*
X311851720Y131999611D01*
X311747893Y131944419D01*
X311665862Y131900851D01*
X311635120Y131884544D01*
X311543719Y131836043D01*
X311447325Y131784812D01*
X311361205Y131738969D01*
X311327780Y131721144D01*
X311267705Y131689136D01*
X311183140Y131644154D01*
X311082510Y131590680D01*
X310974238Y131533187D01*
X310890053Y131488515D01*
X310792381Y131436672D01*
X310706001Y131390763D01*
X310636322Y131353666D01*
X310588759Y131328266D01*
X310568743Y131317455D01*
X310557204Y131325601D01*
X310554785Y131343124D01*
X310557805Y131367400D01*
X310566486Y131424933D01*
X310580263Y131512251D01*
X310598570Y131625882D01*
X310620842Y131762354D01*
X310646513Y131918193D01*
X310675017Y132089929D01*
X310705790Y132274088D01*
X310724024Y132382660D01*
X310756568Y132576401D01*
X310787800Y132762950D01*
X310817068Y132938351D01*
X310843715Y133098646D01*
X310867085Y133239879D01*
X310886523Y133358095D01*
X310901374Y133449337D01*
X310910981Y133509648D01*
X310913486Y133526096D01*
X310933719Y133663692D01*
X310832723Y133758305D01*
X310796690Y133792482D01*
X310737520Y133849115D01*
X310658822Y133924729D01*
X310564203Y134015847D01*
X310457273Y134118994D01*
X310341641Y134230693D01*
X310220915Y134347470D01*
X310200866Y134366879D01*
X310073254Y134490409D01*
X309944673Y134614839D01*
X309819762Y134735685D01*
X309703165Y134848457D01*
X309599519Y134948663D01*
X309513470Y135031819D01*
X309450943Y135092189D01*
X309378149Y135163277D01*
X309316519Y135225104D01*
X309270339Y135273237D01*
X309243894Y135303241D01*
X309239413Y135311074D01*
X309260368Y135317403D01*
X309307652Y135326502D01*
X309365343Y135335558D01*
X309429904Y135344979D01*
X309519708Y135358322D01*
X309623176Y135373857D01*
X309728730Y135389854D01*
X309735200Y135390839D01*
X309849802Y135408160D01*
X309972054Y135426389D01*
X310086753Y135443274D01*
X310172926Y135455738D01*
X310252098Y135467159D01*
X310358296Y135482666D01*
X310481704Y135500813D01*
X310612506Y135520159D01*
X310731726Y135537892D01*
X310862448Y135557364D01*
X310996591Y135577286D01*
X311123818Y135596128D01*
X311233794Y135612358D01*
X311309153Y135623420D01*
X311395621Y135636521D01*
X311470899Y135648777D01*
X311525803Y135658645D01*
X311548863Y135663773D01*
X311567725Y135683004D01*
X311600175Y135733775D01*
X311646502Y135816622D01*
X311706994Y135932076D01*
X311781941Y136080671D01*
X311853774Y136226368D01*
X311934918Y136392284D01*
X312025225Y136576968D01*
X312119539Y136769876D01*
X312212706Y136960469D01*
X312299572Y137138200D01*
X312371856Y137286128D01*
X312433984Y137412711D01*
X312490996Y137527765D01*
X312540829Y137627214D01*
X312581419Y137706979D01*
X312610701Y137762983D01*
X312626614Y137791147D01*
X312628758Y137793705D01*
X312638367Y137777476D01*
G37*
G36*
X238638367Y137777476D02*
G01*
X238663077Y137730664D01*
X238701468Y137656074D01*
X238752122Y137556515D01*
X238813622Y137434793D01*
X238884550Y137293717D01*
X238963489Y137136094D01*
X239049022Y136964731D01*
X239139730Y136782436D01*
X239163121Y136735338D01*
X239688575Y135676973D01*
X240706123Y135532828D01*
X240901978Y135505092D01*
X241091089Y135478329D01*
X241269429Y135453107D01*
X241432970Y135429995D01*
X241577686Y135409562D01*
X241699550Y135392376D01*
X241794534Y135379007D01*
X241858611Y135370022D01*
X241877342Y135367416D01*
X241947507Y135356243D01*
X242000863Y135344964D01*
X242028818Y135335503D01*
X242031012Y135332984D01*
X242018081Y135317965D01*
X241980788Y135279112D01*
X241921370Y135218664D01*
X241842072Y135138860D01*
X241745134Y135041940D01*
X241632797Y134930144D01*
X241507305Y134805711D01*
X241370897Y134670883D01*
X241225816Y134527899D01*
X241191219Y134493859D01*
X241021264Y134326675D01*
X240875970Y134183565D01*
X240753429Y134062482D01*
X240651740Y133961381D01*
X240569002Y133878217D01*
X240503307Y133810941D01*
X240452755Y133757507D01*
X240415443Y133715870D01*
X240389465Y133683982D01*
X240372921Y133659799D01*
X240363907Y133641271D01*
X240360519Y133626355D01*
X240360854Y133613004D01*
X240362416Y133602707D01*
X240371061Y133552605D01*
X240383778Y133480267D01*
X240398030Y133400116D01*
X240400110Y133388500D01*
X240431636Y133212277D01*
X240459962Y133053354D01*
X240484317Y132916094D01*
X240503927Y132804860D01*
X240518019Y132724013D01*
X240522252Y132699313D01*
X240531947Y132643133D01*
X240546183Y132561805D01*
X240562934Y132466852D01*
X240577882Y132382660D01*
X240619961Y132145906D01*
X240655662Y131943819D01*
X240685317Y131774421D01*
X240709258Y131635736D01*
X240727820Y131525787D01*
X240741334Y131442596D01*
X240750135Y131384188D01*
X240754556Y131348584D01*
X240754928Y131333808D01*
X240754655Y131333266D01*
X240744796Y131335465D01*
X240717807Y131347246D01*
X240671347Y131369806D01*
X240603070Y131404338D01*
X240510631Y131452040D01*
X240391688Y131514107D01*
X240243897Y131591735D01*
X240121778Y131656101D01*
X240054776Y131691303D01*
X239963744Y131738914D01*
X239857734Y131794214D01*
X239745794Y131852479D01*
X239665424Y131894228D01*
X239540685Y131958993D01*
X239396670Y132033813D01*
X239247144Y132111533D01*
X239105871Y132185001D01*
X239032118Y132223376D01*
X238929352Y132276358D01*
X238835850Y132323623D01*
X238757391Y132362325D01*
X238699751Y132389618D01*
X238668708Y132402656D01*
X238667296Y132403064D01*
X238638436Y132398753D01*
X238582333Y132377398D01*
X238497850Y132338472D01*
X238383851Y132281448D01*
X238239205Y132205801D01*
X238220258Y132195726D01*
X238095272Y132129184D01*
X237969969Y132062505D01*
X237851720Y131999611D01*
X237747893Y131944419D01*
X237665862Y131900851D01*
X237635120Y131884544D01*
X237543719Y131836043D01*
X237447325Y131784812D01*
X237361205Y131738969D01*
X237327780Y131721144D01*
X237267705Y131689136D01*
X237183140Y131644154D01*
X237082510Y131590680D01*
X236974238Y131533187D01*
X236890053Y131488515D01*
X236792381Y131436672D01*
X236706001Y131390763D01*
X236636322Y131353666D01*
X236588759Y131328266D01*
X236568743Y131317455D01*
X236557204Y131325601D01*
X236554785Y131343124D01*
X236557805Y131367400D01*
X236566486Y131424933D01*
X236580263Y131512251D01*
X236598570Y131625882D01*
X236620842Y131762354D01*
X236646513Y131918193D01*
X236675017Y132089929D01*
X236705790Y132274088D01*
X236724024Y132382660D01*
X236756568Y132576401D01*
X236787800Y132762950D01*
X236817068Y132938351D01*
X236843715Y133098646D01*
X236867085Y133239879D01*
X236886523Y133358095D01*
X236901374Y133449337D01*
X236910981Y133509648D01*
X236913486Y133526096D01*
X236933719Y133663692D01*
X236832723Y133758305D01*
X236796690Y133792482D01*
X236737520Y133849115D01*
X236658822Y133924729D01*
X236564203Y134015847D01*
X236457273Y134118994D01*
X236341641Y134230693D01*
X236220915Y134347470D01*
X236200866Y134366879D01*
X236073254Y134490409D01*
X235944673Y134614839D01*
X235819762Y134735685D01*
X235703165Y134848457D01*
X235599519Y134948663D01*
X235513470Y135031819D01*
X235450943Y135092189D01*
X235378149Y135163277D01*
X235316519Y135225104D01*
X235270339Y135273237D01*
X235243894Y135303241D01*
X235239413Y135311074D01*
X235260368Y135317403D01*
X235307652Y135326502D01*
X235365343Y135335558D01*
X235429904Y135344979D01*
X235519708Y135358322D01*
X235623176Y135373857D01*
X235728730Y135389854D01*
X235735200Y135390839D01*
X235849802Y135408160D01*
X235972054Y135426389D01*
X236086753Y135443274D01*
X236172926Y135455738D01*
X236252098Y135467159D01*
X236358296Y135482666D01*
X236481704Y135500813D01*
X236612506Y135520159D01*
X236731726Y135537892D01*
X236862448Y135557364D01*
X236996591Y135577286D01*
X237123818Y135596128D01*
X237233794Y135612358D01*
X237309153Y135623420D01*
X237395621Y135636521D01*
X237470899Y135648777D01*
X237525803Y135658645D01*
X237548863Y135663773D01*
X237567725Y135683004D01*
X237600175Y135733775D01*
X237646502Y135816622D01*
X237706994Y135932076D01*
X237781941Y136080671D01*
X237853774Y136226368D01*
X237934918Y136392284D01*
X238025225Y136576968D01*
X238119539Y136769876D01*
X238212706Y136960469D01*
X238299572Y137138200D01*
X238371856Y137286128D01*
X238433984Y137412711D01*
X238490996Y137527765D01*
X238540829Y137627214D01*
X238581419Y137706979D01*
X238610701Y137762983D01*
X238626614Y137791147D01*
X238628758Y137793705D01*
X238638367Y137777476D01*
G37*
G36*
X298638367Y137777476D02*
G01*
X298663077Y137730664D01*
X298701468Y137656074D01*
X298752122Y137556515D01*
X298813622Y137434793D01*
X298884550Y137293717D01*
X298963489Y137136094D01*
X299049022Y136964731D01*
X299139730Y136782436D01*
X299163121Y136735338D01*
X299688575Y135676973D01*
X300706123Y135532828D01*
X300901978Y135505092D01*
X301091089Y135478329D01*
X301269429Y135453107D01*
X301432970Y135429995D01*
X301577686Y135409562D01*
X301699550Y135392376D01*
X301794534Y135379007D01*
X301858611Y135370022D01*
X301877342Y135367416D01*
X301947507Y135356243D01*
X302000863Y135344964D01*
X302028818Y135335503D01*
X302031012Y135332984D01*
X302018081Y135317965D01*
X301980788Y135279112D01*
X301921370Y135218664D01*
X301842072Y135138860D01*
X301745134Y135041940D01*
X301632797Y134930144D01*
X301507305Y134805711D01*
X301370897Y134670883D01*
X301225816Y134527899D01*
X301191219Y134493859D01*
X301021264Y134326675D01*
X300875970Y134183565D01*
X300753429Y134062482D01*
X300651740Y133961381D01*
X300569002Y133878217D01*
X300503307Y133810941D01*
X300452755Y133757507D01*
X300415443Y133715870D01*
X300389465Y133683982D01*
X300372921Y133659799D01*
X300363907Y133641271D01*
X300360519Y133626355D01*
X300360854Y133613004D01*
X300362416Y133602707D01*
X300371061Y133552605D01*
X300383778Y133480267D01*
X300398030Y133400116D01*
X300400110Y133388500D01*
X300431636Y133212277D01*
X300459962Y133053354D01*
X300484317Y132916094D01*
X300503927Y132804860D01*
X300518019Y132724013D01*
X300522252Y132699313D01*
X300531947Y132643133D01*
X300546183Y132561805D01*
X300562934Y132466852D01*
X300577882Y132382660D01*
X300619961Y132145906D01*
X300655662Y131943819D01*
X300685317Y131774421D01*
X300709258Y131635736D01*
X300727820Y131525787D01*
X300741334Y131442596D01*
X300750135Y131384188D01*
X300754556Y131348584D01*
X300754928Y131333808D01*
X300754655Y131333266D01*
X300744796Y131335465D01*
X300717807Y131347246D01*
X300671347Y131369806D01*
X300603070Y131404338D01*
X300510631Y131452040D01*
X300391688Y131514107D01*
X300243897Y131591735D01*
X300121778Y131656101D01*
X300054776Y131691303D01*
X299963744Y131738914D01*
X299857734Y131794214D01*
X299745794Y131852479D01*
X299665424Y131894228D01*
X299540685Y131958993D01*
X299396670Y132033813D01*
X299247144Y132111533D01*
X299105871Y132185001D01*
X299032118Y132223376D01*
X298929352Y132276358D01*
X298835850Y132323623D01*
X298757391Y132362325D01*
X298699751Y132389618D01*
X298668708Y132402656D01*
X298667296Y132403064D01*
X298638436Y132398753D01*
X298582333Y132377398D01*
X298497850Y132338472D01*
X298383851Y132281448D01*
X298239205Y132205801D01*
X298220258Y132195726D01*
X298095272Y132129184D01*
X297969969Y132062505D01*
X297851720Y131999611D01*
X297747893Y131944419D01*
X297665862Y131900851D01*
X297635120Y131884544D01*
X297543719Y131836043D01*
X297447325Y131784812D01*
X297361205Y131738969D01*
X297327780Y131721144D01*
X297267705Y131689136D01*
X297183140Y131644154D01*
X297082510Y131590680D01*
X296974238Y131533187D01*
X296890053Y131488515D01*
X296792381Y131436672D01*
X296706001Y131390763D01*
X296636322Y131353666D01*
X296588759Y131328266D01*
X296568743Y131317455D01*
X296557204Y131325601D01*
X296554785Y131343124D01*
X296557805Y131367400D01*
X296566486Y131424933D01*
X296580263Y131512251D01*
X296598570Y131625882D01*
X296620842Y131762354D01*
X296646513Y131918193D01*
X296675017Y132089929D01*
X296705790Y132274088D01*
X296724024Y132382660D01*
X296756568Y132576401D01*
X296787800Y132762950D01*
X296817068Y132938351D01*
X296843715Y133098646D01*
X296867085Y133239879D01*
X296886523Y133358095D01*
X296901374Y133449337D01*
X296910981Y133509648D01*
X296913486Y133526096D01*
X296933719Y133663692D01*
X296832723Y133758305D01*
X296796690Y133792482D01*
X296737520Y133849115D01*
X296658822Y133924729D01*
X296564203Y134015847D01*
X296457273Y134118994D01*
X296341641Y134230693D01*
X296220915Y134347470D01*
X296200866Y134366879D01*
X296073254Y134490409D01*
X295944673Y134614839D01*
X295819762Y134735685D01*
X295703165Y134848457D01*
X295599519Y134948663D01*
X295513470Y135031819D01*
X295450943Y135092189D01*
X295378149Y135163277D01*
X295316519Y135225104D01*
X295270339Y135273237D01*
X295243894Y135303241D01*
X295239413Y135311074D01*
X295260368Y135317403D01*
X295307652Y135326502D01*
X295365343Y135335558D01*
X295429904Y135344979D01*
X295519708Y135358322D01*
X295623176Y135373857D01*
X295728730Y135389854D01*
X295735200Y135390839D01*
X295849802Y135408160D01*
X295972054Y135426389D01*
X296086753Y135443274D01*
X296172926Y135455738D01*
X296252098Y135467159D01*
X296358296Y135482666D01*
X296481704Y135500813D01*
X296612506Y135520159D01*
X296731726Y135537892D01*
X296862448Y135557364D01*
X296996591Y135577286D01*
X297123818Y135596128D01*
X297233794Y135612358D01*
X297309153Y135623420D01*
X297395621Y135636521D01*
X297470899Y135648777D01*
X297525803Y135658645D01*
X297548863Y135663773D01*
X297567725Y135683004D01*
X297600175Y135733775D01*
X297646502Y135816622D01*
X297706994Y135932076D01*
X297781941Y136080671D01*
X297853774Y136226368D01*
X297934918Y136392284D01*
X298025225Y136576968D01*
X298119539Y136769876D01*
X298212706Y136960469D01*
X298299572Y137138200D01*
X298371856Y137286128D01*
X298433984Y137412711D01*
X298490996Y137527765D01*
X298540829Y137627214D01*
X298581419Y137706979D01*
X298610701Y137762983D01*
X298626614Y137791147D01*
X298628758Y137793705D01*
X298638367Y137777476D01*
G37*
G36*
X319638367Y137777476D02*
G01*
X319663077Y137730664D01*
X319701468Y137656074D01*
X319752122Y137556515D01*
X319813622Y137434793D01*
X319884550Y137293717D01*
X319963489Y137136094D01*
X320049022Y136964731D01*
X320139730Y136782436D01*
X320163121Y136735338D01*
X320688575Y135676973D01*
X321706123Y135532828D01*
X321901978Y135505092D01*
X322091089Y135478329D01*
X322269429Y135453107D01*
X322432970Y135429995D01*
X322577686Y135409562D01*
X322699550Y135392376D01*
X322794534Y135379007D01*
X322858611Y135370022D01*
X322877342Y135367416D01*
X322947507Y135356243D01*
X323000863Y135344964D01*
X323028818Y135335503D01*
X323031012Y135332984D01*
X323018081Y135317965D01*
X322980788Y135279112D01*
X322921370Y135218664D01*
X322842072Y135138860D01*
X322745134Y135041940D01*
X322632797Y134930144D01*
X322507305Y134805711D01*
X322370897Y134670883D01*
X322225816Y134527899D01*
X322191219Y134493859D01*
X322021264Y134326675D01*
X321875970Y134183565D01*
X321753429Y134062482D01*
X321651740Y133961381D01*
X321569002Y133878217D01*
X321503307Y133810941D01*
X321452755Y133757507D01*
X321415443Y133715870D01*
X321389465Y133683982D01*
X321372921Y133659799D01*
X321363907Y133641271D01*
X321360519Y133626355D01*
X321360854Y133613004D01*
X321362416Y133602707D01*
X321371061Y133552605D01*
X321383778Y133480267D01*
X321398030Y133400116D01*
X321400110Y133388500D01*
X321431636Y133212277D01*
X321459962Y133053354D01*
X321484317Y132916094D01*
X321503927Y132804860D01*
X321518019Y132724013D01*
X321522252Y132699313D01*
X321531947Y132643133D01*
X321546183Y132561805D01*
X321562934Y132466852D01*
X321577882Y132382660D01*
X321619961Y132145906D01*
X321655662Y131943819D01*
X321685317Y131774421D01*
X321709258Y131635736D01*
X321727820Y131525787D01*
X321741334Y131442596D01*
X321750135Y131384188D01*
X321754556Y131348584D01*
X321754928Y131333808D01*
X321754655Y131333266D01*
X321744796Y131335465D01*
X321717807Y131347246D01*
X321671347Y131369806D01*
X321603070Y131404338D01*
X321510631Y131452040D01*
X321391688Y131514107D01*
X321243897Y131591735D01*
X321121778Y131656101D01*
X321054776Y131691303D01*
X320963744Y131738914D01*
X320857734Y131794214D01*
X320745794Y131852479D01*
X320665424Y131894228D01*
X320540685Y131958993D01*
X320396670Y132033813D01*
X320247144Y132111533D01*
X320105871Y132185001D01*
X320032118Y132223376D01*
X319929352Y132276358D01*
X319835850Y132323623D01*
X319757391Y132362325D01*
X319699751Y132389618D01*
X319668708Y132402656D01*
X319667296Y132403064D01*
X319638436Y132398753D01*
X319582333Y132377398D01*
X319497850Y132338472D01*
X319383851Y132281448D01*
X319239205Y132205801D01*
X319220258Y132195726D01*
X319095272Y132129184D01*
X318969969Y132062505D01*
X318851720Y131999611D01*
X318747893Y131944419D01*
X318665862Y131900851D01*
X318635120Y131884544D01*
X318543719Y131836043D01*
X318447325Y131784812D01*
X318361205Y131738969D01*
X318327780Y131721144D01*
X318267705Y131689136D01*
X318183140Y131644154D01*
X318082510Y131590680D01*
X317974238Y131533187D01*
X317890053Y131488515D01*
X317792381Y131436672D01*
X317706001Y131390763D01*
X317636322Y131353666D01*
X317588759Y131328266D01*
X317568743Y131317455D01*
X317557204Y131325601D01*
X317554785Y131343124D01*
X317557805Y131367400D01*
X317566486Y131424933D01*
X317580263Y131512251D01*
X317598570Y131625882D01*
X317620842Y131762354D01*
X317646513Y131918193D01*
X317675017Y132089929D01*
X317705790Y132274088D01*
X317724024Y132382660D01*
X317756568Y132576401D01*
X317787800Y132762950D01*
X317817068Y132938351D01*
X317843715Y133098646D01*
X317867085Y133239879D01*
X317886523Y133358095D01*
X317901374Y133449337D01*
X317910981Y133509648D01*
X317913486Y133526096D01*
X317933719Y133663692D01*
X317832723Y133758305D01*
X317796690Y133792482D01*
X317737520Y133849115D01*
X317658822Y133924729D01*
X317564203Y134015847D01*
X317457273Y134118994D01*
X317341641Y134230693D01*
X317220915Y134347470D01*
X317200866Y134366879D01*
X317073254Y134490409D01*
X316944673Y134614839D01*
X316819762Y134735685D01*
X316703165Y134848457D01*
X316599519Y134948663D01*
X316513470Y135031819D01*
X316450943Y135092189D01*
X316378149Y135163277D01*
X316316519Y135225104D01*
X316270339Y135273237D01*
X316243894Y135303241D01*
X316239413Y135311074D01*
X316260368Y135317403D01*
X316307652Y135326502D01*
X316365343Y135335558D01*
X316429904Y135344979D01*
X316519708Y135358322D01*
X316623176Y135373857D01*
X316728730Y135389854D01*
X316735200Y135390839D01*
X316849802Y135408160D01*
X316972054Y135426389D01*
X317086753Y135443274D01*
X317172926Y135455738D01*
X317252098Y135467159D01*
X317358296Y135482666D01*
X317481704Y135500813D01*
X317612506Y135520159D01*
X317731726Y135537892D01*
X317862448Y135557364D01*
X317996591Y135577286D01*
X318123818Y135596128D01*
X318233794Y135612358D01*
X318309153Y135623420D01*
X318395621Y135636521D01*
X318470899Y135648777D01*
X318525803Y135658645D01*
X318548863Y135663773D01*
X318567725Y135683004D01*
X318600175Y135733775D01*
X318646502Y135816622D01*
X318706994Y135932076D01*
X318781941Y136080671D01*
X318853774Y136226368D01*
X318934918Y136392284D01*
X319025225Y136576968D01*
X319119539Y136769876D01*
X319212706Y136960469D01*
X319299572Y137138200D01*
X319371856Y137286128D01*
X319433984Y137412711D01*
X319490996Y137527765D01*
X319540829Y137627214D01*
X319581419Y137706979D01*
X319610701Y137762983D01*
X319626614Y137791147D01*
X319628758Y137793705D01*
X319638367Y137777476D01*
G37*
G36*
X326638367Y137777476D02*
G01*
X326663077Y137730664D01*
X326701468Y137656074D01*
X326752122Y137556515D01*
X326813622Y137434793D01*
X326884550Y137293717D01*
X326963489Y137136094D01*
X327049022Y136964731D01*
X327139730Y136782436D01*
X327163121Y136735338D01*
X327688575Y135676973D01*
X328706123Y135532828D01*
X328901978Y135505092D01*
X329091089Y135478329D01*
X329269429Y135453107D01*
X329432970Y135429995D01*
X329577686Y135409562D01*
X329699550Y135392376D01*
X329794534Y135379007D01*
X329858611Y135370022D01*
X329877342Y135367416D01*
X329947507Y135356243D01*
X330000863Y135344964D01*
X330028818Y135335503D01*
X330031012Y135332984D01*
X330018081Y135317965D01*
X329980788Y135279112D01*
X329921370Y135218664D01*
X329842072Y135138860D01*
X329745134Y135041940D01*
X329632797Y134930144D01*
X329507305Y134805711D01*
X329370897Y134670883D01*
X329225816Y134527899D01*
X329191219Y134493859D01*
X329021264Y134326675D01*
X328875970Y134183565D01*
X328753429Y134062482D01*
X328651740Y133961381D01*
X328569002Y133878217D01*
X328503307Y133810941D01*
X328452755Y133757507D01*
X328415443Y133715870D01*
X328389465Y133683982D01*
X328372921Y133659799D01*
X328363907Y133641271D01*
X328360519Y133626355D01*
X328360854Y133613004D01*
X328362416Y133602707D01*
X328371061Y133552605D01*
X328383778Y133480267D01*
X328398030Y133400116D01*
X328400110Y133388500D01*
X328431636Y133212277D01*
X328459962Y133053354D01*
X328484317Y132916094D01*
X328503927Y132804860D01*
X328518019Y132724013D01*
X328522252Y132699313D01*
X328531947Y132643133D01*
X328546183Y132561805D01*
X328562934Y132466852D01*
X328577882Y132382660D01*
X328619961Y132145906D01*
X328655662Y131943819D01*
X328685317Y131774421D01*
X328709258Y131635736D01*
X328727820Y131525787D01*
X328741334Y131442596D01*
X328750135Y131384188D01*
X328754556Y131348584D01*
X328754928Y131333808D01*
X328754655Y131333266D01*
X328744796Y131335465D01*
X328717807Y131347246D01*
X328671347Y131369806D01*
X328603070Y131404338D01*
X328510631Y131452040D01*
X328391688Y131514107D01*
X328243897Y131591735D01*
X328121778Y131656101D01*
X328054776Y131691303D01*
X327963744Y131738914D01*
X327857734Y131794214D01*
X327745794Y131852479D01*
X327665424Y131894228D01*
X327540685Y131958993D01*
X327396670Y132033813D01*
X327247144Y132111533D01*
X327105871Y132185001D01*
X327032118Y132223376D01*
X326929352Y132276358D01*
X326835850Y132323623D01*
X326757391Y132362325D01*
X326699751Y132389618D01*
X326668708Y132402656D01*
X326667296Y132403064D01*
X326638436Y132398753D01*
X326582333Y132377398D01*
X326497850Y132338472D01*
X326383851Y132281448D01*
X326239205Y132205801D01*
X326220258Y132195726D01*
X326095272Y132129184D01*
X325969969Y132062505D01*
X325851720Y131999611D01*
X325747893Y131944419D01*
X325665862Y131900851D01*
X325635120Y131884544D01*
X325543719Y131836043D01*
X325447325Y131784812D01*
X325361205Y131738969D01*
X325327780Y131721144D01*
X325267705Y131689136D01*
X325183140Y131644154D01*
X325082510Y131590680D01*
X324974238Y131533187D01*
X324890053Y131488515D01*
X324792381Y131436672D01*
X324706001Y131390763D01*
X324636322Y131353666D01*
X324588759Y131328266D01*
X324568743Y131317455D01*
X324557204Y131325601D01*
X324554785Y131343124D01*
X324557805Y131367400D01*
X324566486Y131424933D01*
X324580263Y131512251D01*
X324598570Y131625882D01*
X324620842Y131762354D01*
X324646513Y131918193D01*
X324675017Y132089929D01*
X324705790Y132274088D01*
X324724024Y132382660D01*
X324756568Y132576401D01*
X324787800Y132762950D01*
X324817068Y132938351D01*
X324843715Y133098646D01*
X324867085Y133239879D01*
X324886523Y133358095D01*
X324901374Y133449337D01*
X324910981Y133509648D01*
X324913486Y133526096D01*
X324933719Y133663692D01*
X324832723Y133758305D01*
X324796690Y133792482D01*
X324737520Y133849115D01*
X324658822Y133924729D01*
X324564203Y134015847D01*
X324457273Y134118994D01*
X324341641Y134230693D01*
X324220915Y134347470D01*
X324200866Y134366879D01*
X324073254Y134490409D01*
X323944673Y134614839D01*
X323819762Y134735685D01*
X323703165Y134848457D01*
X323599519Y134948663D01*
X323513470Y135031819D01*
X323450943Y135092189D01*
X323378149Y135163277D01*
X323316519Y135225104D01*
X323270339Y135273237D01*
X323243894Y135303241D01*
X323239413Y135311074D01*
X323260368Y135317403D01*
X323307652Y135326502D01*
X323365343Y135335558D01*
X323429904Y135344979D01*
X323519708Y135358322D01*
X323623176Y135373857D01*
X323728730Y135389854D01*
X323735200Y135390839D01*
X323849802Y135408160D01*
X323972054Y135426389D01*
X324086753Y135443274D01*
X324172926Y135455738D01*
X324252098Y135467159D01*
X324358296Y135482666D01*
X324481704Y135500813D01*
X324612506Y135520159D01*
X324731726Y135537892D01*
X324862448Y135557364D01*
X324996591Y135577286D01*
X325123818Y135596128D01*
X325233794Y135612358D01*
X325309153Y135623420D01*
X325395621Y135636521D01*
X325470899Y135648777D01*
X325525803Y135658645D01*
X325548863Y135663773D01*
X325567725Y135683004D01*
X325600175Y135733775D01*
X325646502Y135816622D01*
X325706994Y135932076D01*
X325781941Y136080671D01*
X325853774Y136226368D01*
X325934918Y136392284D01*
X326025225Y136576968D01*
X326119539Y136769876D01*
X326212706Y136960469D01*
X326299572Y137138200D01*
X326371856Y137286128D01*
X326433984Y137412711D01*
X326490996Y137527765D01*
X326540829Y137627214D01*
X326581419Y137706979D01*
X326610701Y137762983D01*
X326626614Y137791147D01*
X326628758Y137793705D01*
X326638367Y137777476D01*
G37*
G36*
X163638367Y137777476D02*
G01*
X163663077Y137730664D01*
X163701468Y137656074D01*
X163752122Y137556515D01*
X163813622Y137434793D01*
X163884550Y137293717D01*
X163963489Y137136094D01*
X164049022Y136964731D01*
X164139730Y136782436D01*
X164163121Y136735338D01*
X164688575Y135676973D01*
X165706123Y135532828D01*
X165901978Y135505092D01*
X166091089Y135478329D01*
X166269429Y135453107D01*
X166432970Y135429995D01*
X166577686Y135409562D01*
X166699550Y135392376D01*
X166794534Y135379007D01*
X166858611Y135370022D01*
X166877342Y135367416D01*
X166947507Y135356243D01*
X167000863Y135344964D01*
X167028818Y135335503D01*
X167031012Y135332984D01*
X167018081Y135317965D01*
X166980788Y135279112D01*
X166921370Y135218664D01*
X166842072Y135138860D01*
X166745134Y135041940D01*
X166632797Y134930144D01*
X166507305Y134805711D01*
X166370897Y134670883D01*
X166225816Y134527899D01*
X166191219Y134493859D01*
X166021264Y134326675D01*
X165875970Y134183565D01*
X165753429Y134062482D01*
X165651740Y133961381D01*
X165569002Y133878217D01*
X165503307Y133810941D01*
X165452755Y133757507D01*
X165415443Y133715870D01*
X165389465Y133683982D01*
X165372921Y133659799D01*
X165363907Y133641271D01*
X165360519Y133626355D01*
X165360854Y133613004D01*
X165362416Y133602707D01*
X165371061Y133552605D01*
X165383778Y133480267D01*
X165398030Y133400116D01*
X165400110Y133388500D01*
X165431636Y133212277D01*
X165459962Y133053354D01*
X165484317Y132916094D01*
X165503927Y132804860D01*
X165518019Y132724013D01*
X165522252Y132699313D01*
X165531947Y132643133D01*
X165546183Y132561805D01*
X165562934Y132466852D01*
X165577882Y132382660D01*
X165619961Y132145906D01*
X165655662Y131943819D01*
X165685317Y131774421D01*
X165709258Y131635736D01*
X165727820Y131525787D01*
X165741334Y131442596D01*
X165750135Y131384188D01*
X165754556Y131348584D01*
X165754928Y131333808D01*
X165754655Y131333266D01*
X165744796Y131335465D01*
X165717807Y131347246D01*
X165671347Y131369806D01*
X165603070Y131404338D01*
X165510631Y131452040D01*
X165391688Y131514107D01*
X165243897Y131591735D01*
X165121778Y131656101D01*
X165054776Y131691303D01*
X164963744Y131738914D01*
X164857734Y131794214D01*
X164745794Y131852479D01*
X164665424Y131894228D01*
X164540685Y131958993D01*
X164396670Y132033813D01*
X164247144Y132111533D01*
X164105871Y132185001D01*
X164032118Y132223376D01*
X163929352Y132276358D01*
X163835850Y132323623D01*
X163757391Y132362325D01*
X163699751Y132389618D01*
X163668708Y132402656D01*
X163667296Y132403064D01*
X163638436Y132398753D01*
X163582333Y132377398D01*
X163497850Y132338472D01*
X163383851Y132281448D01*
X163239205Y132205801D01*
X163220258Y132195726D01*
X163095272Y132129184D01*
X162969969Y132062505D01*
X162851720Y131999611D01*
X162747893Y131944419D01*
X162665862Y131900851D01*
X162635120Y131884544D01*
X162543719Y131836043D01*
X162447325Y131784812D01*
X162361205Y131738969D01*
X162327780Y131721144D01*
X162267705Y131689136D01*
X162183140Y131644154D01*
X162082510Y131590680D01*
X161974238Y131533187D01*
X161890053Y131488515D01*
X161792381Y131436672D01*
X161706001Y131390763D01*
X161636322Y131353666D01*
X161588759Y131328266D01*
X161568743Y131317455D01*
X161557204Y131325601D01*
X161554785Y131343124D01*
X161557805Y131367400D01*
X161566486Y131424933D01*
X161580263Y131512251D01*
X161598570Y131625882D01*
X161620842Y131762354D01*
X161646513Y131918193D01*
X161675017Y132089929D01*
X161705790Y132274088D01*
X161724024Y132382660D01*
X161756568Y132576401D01*
X161787800Y132762950D01*
X161817068Y132938351D01*
X161843715Y133098646D01*
X161867085Y133239879D01*
X161886523Y133358095D01*
X161901374Y133449337D01*
X161910981Y133509648D01*
X161913486Y133526096D01*
X161933719Y133663692D01*
X161832723Y133758305D01*
X161796690Y133792482D01*
X161737520Y133849115D01*
X161658822Y133924729D01*
X161564203Y134015847D01*
X161457273Y134118994D01*
X161341641Y134230693D01*
X161220915Y134347470D01*
X161200866Y134366879D01*
X161073254Y134490409D01*
X160944673Y134614839D01*
X160819762Y134735685D01*
X160703165Y134848457D01*
X160599519Y134948663D01*
X160513470Y135031819D01*
X160450943Y135092189D01*
X160378149Y135163277D01*
X160316519Y135225104D01*
X160270339Y135273237D01*
X160243894Y135303241D01*
X160239413Y135311074D01*
X160260368Y135317403D01*
X160307652Y135326502D01*
X160365343Y135335558D01*
X160429904Y135344979D01*
X160519708Y135358322D01*
X160623176Y135373857D01*
X160728730Y135389854D01*
X160735200Y135390839D01*
X160849802Y135408160D01*
X160972054Y135426389D01*
X161086753Y135443274D01*
X161172926Y135455738D01*
X161252098Y135467159D01*
X161358296Y135482666D01*
X161481704Y135500813D01*
X161612506Y135520159D01*
X161731726Y135537892D01*
X161862448Y135557364D01*
X161996591Y135577286D01*
X162123818Y135596128D01*
X162233794Y135612358D01*
X162309153Y135623420D01*
X162395621Y135636521D01*
X162470899Y135648777D01*
X162525803Y135658645D01*
X162548863Y135663773D01*
X162567725Y135683004D01*
X162600175Y135733775D01*
X162646502Y135816622D01*
X162706994Y135932076D01*
X162781941Y136080671D01*
X162853774Y136226368D01*
X162934918Y136392284D01*
X163025225Y136576968D01*
X163119539Y136769876D01*
X163212706Y136960469D01*
X163299572Y137138200D01*
X163371856Y137286128D01*
X163433984Y137412711D01*
X163490996Y137527765D01*
X163540829Y137627214D01*
X163581419Y137706979D01*
X163610701Y137762983D01*
X163626614Y137791147D01*
X163628758Y137793705D01*
X163638367Y137777476D01*
G37*
G36*
X245638367Y137777476D02*
G01*
X245663077Y137730664D01*
X245701468Y137656074D01*
X245752122Y137556515D01*
X245813622Y137434793D01*
X245884550Y137293717D01*
X245963489Y137136094D01*
X246049022Y136964731D01*
X246139730Y136782436D01*
X246163121Y136735338D01*
X246688575Y135676973D01*
X247706123Y135532828D01*
X247901978Y135505092D01*
X248091089Y135478329D01*
X248269429Y135453107D01*
X248432970Y135429995D01*
X248577686Y135409562D01*
X248699550Y135392376D01*
X248794534Y135379007D01*
X248858611Y135370022D01*
X248877342Y135367416D01*
X248947507Y135356243D01*
X249000863Y135344964D01*
X249028818Y135335503D01*
X249031012Y135332984D01*
X249018081Y135317965D01*
X248980788Y135279112D01*
X248921370Y135218664D01*
X248842072Y135138860D01*
X248745134Y135041940D01*
X248632797Y134930144D01*
X248507305Y134805711D01*
X248370897Y134670883D01*
X248225816Y134527899D01*
X248191219Y134493859D01*
X248021264Y134326675D01*
X247875970Y134183565D01*
X247753429Y134062482D01*
X247651740Y133961381D01*
X247569002Y133878217D01*
X247503307Y133810941D01*
X247452755Y133757507D01*
X247415443Y133715870D01*
X247389465Y133683982D01*
X247372921Y133659799D01*
X247363907Y133641271D01*
X247360519Y133626355D01*
X247360854Y133613004D01*
X247362416Y133602707D01*
X247371061Y133552605D01*
X247383778Y133480267D01*
X247398030Y133400116D01*
X247400110Y133388500D01*
X247431636Y133212277D01*
X247459962Y133053354D01*
X247484317Y132916094D01*
X247503927Y132804860D01*
X247518019Y132724013D01*
X247522252Y132699313D01*
X247531947Y132643133D01*
X247546183Y132561805D01*
X247562934Y132466852D01*
X247577882Y132382660D01*
X247619961Y132145906D01*
X247655662Y131943819D01*
X247685317Y131774421D01*
X247709258Y131635736D01*
X247727820Y131525787D01*
X247741334Y131442596D01*
X247750135Y131384188D01*
X247754556Y131348584D01*
X247754928Y131333808D01*
X247754655Y131333266D01*
X247744796Y131335465D01*
X247717807Y131347246D01*
X247671347Y131369806D01*
X247603070Y131404338D01*
X247510631Y131452040D01*
X247391688Y131514107D01*
X247243897Y131591735D01*
X247121778Y131656101D01*
X247054776Y131691303D01*
X246963744Y131738914D01*
X246857734Y131794214D01*
X246745794Y131852479D01*
X246665424Y131894228D01*
X246540685Y131958993D01*
X246396670Y132033813D01*
X246247144Y132111533D01*
X246105871Y132185001D01*
X246032118Y132223376D01*
X245929352Y132276358D01*
X245835850Y132323623D01*
X245757391Y132362325D01*
X245699751Y132389618D01*
X245668708Y132402656D01*
X245667296Y132403064D01*
X245638436Y132398753D01*
X245582333Y132377398D01*
X245497850Y132338472D01*
X245383851Y132281448D01*
X245239205Y132205801D01*
X245220258Y132195726D01*
X245095272Y132129184D01*
X244969969Y132062505D01*
X244851720Y131999611D01*
X244747893Y131944419D01*
X244665862Y131900851D01*
X244635120Y131884544D01*
X244543719Y131836043D01*
X244447325Y131784812D01*
X244361205Y131738969D01*
X244327780Y131721144D01*
X244267705Y131689136D01*
X244183140Y131644154D01*
X244082510Y131590680D01*
X243974238Y131533187D01*
X243890053Y131488515D01*
X243792381Y131436672D01*
X243706001Y131390763D01*
X243636322Y131353666D01*
X243588759Y131328266D01*
X243568743Y131317455D01*
X243557204Y131325601D01*
X243554785Y131343124D01*
X243557805Y131367400D01*
X243566486Y131424933D01*
X243580263Y131512251D01*
X243598570Y131625882D01*
X243620842Y131762354D01*
X243646513Y131918193D01*
X243675017Y132089929D01*
X243705790Y132274088D01*
X243724024Y132382660D01*
X243756568Y132576401D01*
X243787800Y132762950D01*
X243817068Y132938351D01*
X243843715Y133098646D01*
X243867085Y133239879D01*
X243886523Y133358095D01*
X243901374Y133449337D01*
X243910981Y133509648D01*
X243913486Y133526096D01*
X243933719Y133663692D01*
X243832723Y133758305D01*
X243796690Y133792482D01*
X243737520Y133849115D01*
X243658822Y133924729D01*
X243564203Y134015847D01*
X243457273Y134118994D01*
X243341641Y134230693D01*
X243220915Y134347470D01*
X243200866Y134366879D01*
X243073254Y134490409D01*
X242944673Y134614839D01*
X242819762Y134735685D01*
X242703165Y134848457D01*
X242599519Y134948663D01*
X242513470Y135031819D01*
X242450943Y135092189D01*
X242378149Y135163277D01*
X242316519Y135225104D01*
X242270339Y135273237D01*
X242243894Y135303241D01*
X242239413Y135311074D01*
X242260368Y135317403D01*
X242307652Y135326502D01*
X242365343Y135335558D01*
X242429904Y135344979D01*
X242519708Y135358322D01*
X242623176Y135373857D01*
X242728730Y135389854D01*
X242735200Y135390839D01*
X242849802Y135408160D01*
X242972054Y135426389D01*
X243086753Y135443274D01*
X243172926Y135455738D01*
X243252098Y135467159D01*
X243358296Y135482666D01*
X243481704Y135500813D01*
X243612506Y135520159D01*
X243731726Y135537892D01*
X243862448Y135557364D01*
X243996591Y135577286D01*
X244123818Y135596128D01*
X244233794Y135612358D01*
X244309153Y135623420D01*
X244395621Y135636521D01*
X244470899Y135648777D01*
X244525803Y135658645D01*
X244548863Y135663773D01*
X244567725Y135683004D01*
X244600175Y135733775D01*
X244646502Y135816622D01*
X244706994Y135932076D01*
X244781941Y136080671D01*
X244853774Y136226368D01*
X244934918Y136392284D01*
X245025225Y136576968D01*
X245119539Y136769876D01*
X245212706Y136960469D01*
X245299572Y137138200D01*
X245371856Y137286128D01*
X245433984Y137412711D01*
X245490996Y137527765D01*
X245540829Y137627214D01*
X245581419Y137706979D01*
X245610701Y137762983D01*
X245626614Y137791147D01*
X245628758Y137793705D01*
X245638367Y137777476D01*
G37*
G36*
X305638367Y137777476D02*
G01*
X305663077Y137730664D01*
X305701468Y137656074D01*
X305752122Y137556515D01*
X305813622Y137434793D01*
X305884550Y137293717D01*
X305963489Y137136094D01*
X306049022Y136964731D01*
X306139730Y136782436D01*
X306163121Y136735338D01*
X306688575Y135676973D01*
X307706123Y135532828D01*
X307901978Y135505092D01*
X308091089Y135478329D01*
X308269429Y135453107D01*
X308432970Y135429995D01*
X308577686Y135409562D01*
X308699550Y135392376D01*
X308794534Y135379007D01*
X308858611Y135370022D01*
X308877342Y135367416D01*
X308947507Y135356243D01*
X309000863Y135344964D01*
X309028818Y135335503D01*
X309031012Y135332984D01*
X309018081Y135317965D01*
X308980788Y135279112D01*
X308921370Y135218664D01*
X308842072Y135138860D01*
X308745134Y135041940D01*
X308632797Y134930144D01*
X308507305Y134805711D01*
X308370897Y134670883D01*
X308225816Y134527899D01*
X308191219Y134493859D01*
X308021264Y134326675D01*
X307875970Y134183565D01*
X307753429Y134062482D01*
X307651740Y133961381D01*
X307569002Y133878217D01*
X307503307Y133810941D01*
X307452755Y133757507D01*
X307415443Y133715870D01*
X307389465Y133683982D01*
X307372921Y133659799D01*
X307363907Y133641271D01*
X307360519Y133626355D01*
X307360854Y133613004D01*
X307362416Y133602707D01*
X307371061Y133552605D01*
X307383778Y133480267D01*
X307398030Y133400116D01*
X307400110Y133388500D01*
X307431636Y133212277D01*
X307459962Y133053354D01*
X307484317Y132916094D01*
X307503927Y132804860D01*
X307518019Y132724013D01*
X307522252Y132699313D01*
X307531947Y132643133D01*
X307546183Y132561805D01*
X307562934Y132466852D01*
X307577882Y132382660D01*
X307619961Y132145906D01*
X307655662Y131943819D01*
X307685317Y131774421D01*
X307709258Y131635736D01*
X307727820Y131525787D01*
X307741334Y131442596D01*
X307750135Y131384188D01*
X307754556Y131348584D01*
X307754928Y131333808D01*
X307754655Y131333266D01*
X307744796Y131335465D01*
X307717807Y131347246D01*
X307671347Y131369806D01*
X307603070Y131404338D01*
X307510631Y131452040D01*
X307391688Y131514107D01*
X307243897Y131591735D01*
X307121778Y131656101D01*
X307054776Y131691303D01*
X306963744Y131738914D01*
X306857734Y131794214D01*
X306745794Y131852479D01*
X306665424Y131894228D01*
X306540685Y131958993D01*
X306396670Y132033813D01*
X306247144Y132111533D01*
X306105871Y132185001D01*
X306032118Y132223376D01*
X305929352Y132276358D01*
X305835850Y132323623D01*
X305757391Y132362325D01*
X305699751Y132389618D01*
X305668708Y132402656D01*
X305667296Y132403064D01*
X305638436Y132398753D01*
X305582333Y132377398D01*
X305497850Y132338472D01*
X305383851Y132281448D01*
X305239205Y132205801D01*
X305220258Y132195726D01*
X305095272Y132129184D01*
X304969969Y132062505D01*
X304851720Y131999611D01*
X304747893Y131944419D01*
X304665862Y131900851D01*
X304635120Y131884544D01*
X304543719Y131836043D01*
X304447325Y131784812D01*
X304361205Y131738969D01*
X304327780Y131721144D01*
X304267705Y131689136D01*
X304183140Y131644154D01*
X304082510Y131590680D01*
X303974238Y131533187D01*
X303890053Y131488515D01*
X303792381Y131436672D01*
X303706001Y131390763D01*
X303636322Y131353666D01*
X303588759Y131328266D01*
X303568743Y131317455D01*
X303557204Y131325601D01*
X303554785Y131343124D01*
X303557805Y131367400D01*
X303566486Y131424933D01*
X303580263Y131512251D01*
X303598570Y131625882D01*
X303620842Y131762354D01*
X303646513Y131918193D01*
X303675017Y132089929D01*
X303705790Y132274088D01*
X303724024Y132382660D01*
X303756568Y132576401D01*
X303787800Y132762950D01*
X303817068Y132938351D01*
X303843715Y133098646D01*
X303867085Y133239879D01*
X303886523Y133358095D01*
X303901374Y133449337D01*
X303910981Y133509648D01*
X303913486Y133526096D01*
X303933719Y133663692D01*
X303832723Y133758305D01*
X303796690Y133792482D01*
X303737520Y133849115D01*
X303658822Y133924729D01*
X303564203Y134015847D01*
X303457273Y134118994D01*
X303341641Y134230693D01*
X303220915Y134347470D01*
X303200866Y134366879D01*
X303073254Y134490409D01*
X302944673Y134614839D01*
X302819762Y134735685D01*
X302703165Y134848457D01*
X302599519Y134948663D01*
X302513470Y135031819D01*
X302450943Y135092189D01*
X302378149Y135163277D01*
X302316519Y135225104D01*
X302270339Y135273237D01*
X302243894Y135303241D01*
X302239413Y135311074D01*
X302260368Y135317403D01*
X302307652Y135326502D01*
X302365343Y135335558D01*
X302429904Y135344979D01*
X302519708Y135358322D01*
X302623176Y135373857D01*
X302728730Y135389854D01*
X302735200Y135390839D01*
X302849802Y135408160D01*
X302972054Y135426389D01*
X303086753Y135443274D01*
X303172926Y135455738D01*
X303252098Y135467159D01*
X303358296Y135482666D01*
X303481704Y135500813D01*
X303612506Y135520159D01*
X303731726Y135537892D01*
X303862448Y135557364D01*
X303996591Y135577286D01*
X304123818Y135596128D01*
X304233794Y135612358D01*
X304309153Y135623420D01*
X304395621Y135636521D01*
X304470899Y135648777D01*
X304525803Y135658645D01*
X304548863Y135663773D01*
X304567725Y135683004D01*
X304600175Y135733775D01*
X304646502Y135816622D01*
X304706994Y135932076D01*
X304781941Y136080671D01*
X304853774Y136226368D01*
X304934918Y136392284D01*
X305025225Y136576968D01*
X305119539Y136769876D01*
X305212706Y136960469D01*
X305299572Y137138200D01*
X305371856Y137286128D01*
X305433984Y137412711D01*
X305490996Y137527765D01*
X305540829Y137627214D01*
X305581419Y137706979D01*
X305610701Y137762983D01*
X305626614Y137791147D01*
X305628758Y137793705D01*
X305638367Y137777476D01*
G37*
G36*
X177638367Y137777476D02*
G01*
X177663077Y137730664D01*
X177701468Y137656074D01*
X177752122Y137556515D01*
X177813622Y137434793D01*
X177884550Y137293717D01*
X177963489Y137136094D01*
X178049022Y136964731D01*
X178139730Y136782436D01*
X178163121Y136735338D01*
X178688575Y135676973D01*
X179706123Y135532828D01*
X179901978Y135505092D01*
X180091089Y135478329D01*
X180269429Y135453107D01*
X180432970Y135429995D01*
X180577686Y135409562D01*
X180699550Y135392376D01*
X180794534Y135379007D01*
X180858611Y135370022D01*
X180877342Y135367416D01*
X180947507Y135356243D01*
X181000863Y135344964D01*
X181028818Y135335503D01*
X181031012Y135332984D01*
X181018081Y135317965D01*
X180980788Y135279112D01*
X180921370Y135218664D01*
X180842072Y135138860D01*
X180745134Y135041940D01*
X180632797Y134930144D01*
X180507305Y134805711D01*
X180370897Y134670883D01*
X180225816Y134527899D01*
X180191219Y134493859D01*
X180021264Y134326675D01*
X179875970Y134183565D01*
X179753429Y134062482D01*
X179651740Y133961381D01*
X179569002Y133878217D01*
X179503307Y133810941D01*
X179452755Y133757507D01*
X179415443Y133715870D01*
X179389465Y133683982D01*
X179372921Y133659799D01*
X179363907Y133641271D01*
X179360519Y133626355D01*
X179360854Y133613004D01*
X179362416Y133602707D01*
X179371061Y133552605D01*
X179383778Y133480267D01*
X179398030Y133400116D01*
X179400110Y133388500D01*
X179431636Y133212277D01*
X179459962Y133053354D01*
X179484317Y132916094D01*
X179503927Y132804860D01*
X179518019Y132724013D01*
X179522252Y132699313D01*
X179531947Y132643133D01*
X179546183Y132561805D01*
X179562934Y132466852D01*
X179577882Y132382660D01*
X179619961Y132145906D01*
X179655662Y131943819D01*
X179685317Y131774421D01*
X179709258Y131635736D01*
X179727820Y131525787D01*
X179741334Y131442596D01*
X179750135Y131384188D01*
X179754556Y131348584D01*
X179754928Y131333808D01*
X179754655Y131333266D01*
X179744796Y131335465D01*
X179717807Y131347246D01*
X179671347Y131369806D01*
X179603070Y131404338D01*
X179510631Y131452040D01*
X179391688Y131514107D01*
X179243897Y131591735D01*
X179121778Y131656101D01*
X179054776Y131691303D01*
X178963744Y131738914D01*
X178857734Y131794214D01*
X178745794Y131852479D01*
X178665424Y131894228D01*
X178540685Y131958993D01*
X178396670Y132033813D01*
X178247144Y132111533D01*
X178105871Y132185001D01*
X178032118Y132223376D01*
X177929352Y132276358D01*
X177835850Y132323623D01*
X177757391Y132362325D01*
X177699751Y132389618D01*
X177668708Y132402656D01*
X177667296Y132403064D01*
X177638436Y132398753D01*
X177582333Y132377398D01*
X177497850Y132338472D01*
X177383851Y132281448D01*
X177239205Y132205801D01*
X177220258Y132195726D01*
X177095272Y132129184D01*
X176969969Y132062505D01*
X176851720Y131999611D01*
X176747893Y131944419D01*
X176665862Y131900851D01*
X176635120Y131884544D01*
X176543719Y131836043D01*
X176447325Y131784812D01*
X176361205Y131738969D01*
X176327780Y131721144D01*
X176267705Y131689136D01*
X176183140Y131644154D01*
X176082510Y131590680D01*
X175974238Y131533187D01*
X175890053Y131488515D01*
X175792381Y131436672D01*
X175706001Y131390763D01*
X175636322Y131353666D01*
X175588759Y131328266D01*
X175568743Y131317455D01*
X175557204Y131325601D01*
X175554785Y131343124D01*
X175557805Y131367400D01*
X175566486Y131424933D01*
X175580263Y131512251D01*
X175598570Y131625882D01*
X175620842Y131762354D01*
X175646513Y131918193D01*
X175675017Y132089929D01*
X175705790Y132274088D01*
X175724024Y132382660D01*
X175756568Y132576401D01*
X175787800Y132762950D01*
X175817068Y132938351D01*
X175843715Y133098646D01*
X175867085Y133239879D01*
X175886523Y133358095D01*
X175901374Y133449337D01*
X175910981Y133509648D01*
X175913486Y133526096D01*
X175933719Y133663692D01*
X175832723Y133758305D01*
X175796690Y133792482D01*
X175737520Y133849115D01*
X175658822Y133924729D01*
X175564203Y134015847D01*
X175457273Y134118994D01*
X175341641Y134230693D01*
X175220915Y134347470D01*
X175200866Y134366879D01*
X175073254Y134490409D01*
X174944673Y134614839D01*
X174819762Y134735685D01*
X174703165Y134848457D01*
X174599519Y134948663D01*
X174513470Y135031819D01*
X174450943Y135092189D01*
X174378149Y135163277D01*
X174316519Y135225104D01*
X174270339Y135273237D01*
X174243894Y135303241D01*
X174239413Y135311074D01*
X174260368Y135317403D01*
X174307652Y135326502D01*
X174365343Y135335558D01*
X174429904Y135344979D01*
X174519708Y135358322D01*
X174623176Y135373857D01*
X174728730Y135389854D01*
X174735200Y135390839D01*
X174849802Y135408160D01*
X174972054Y135426389D01*
X175086753Y135443274D01*
X175172926Y135455738D01*
X175252098Y135467159D01*
X175358296Y135482666D01*
X175481704Y135500813D01*
X175612506Y135520159D01*
X175731726Y135537892D01*
X175862448Y135557364D01*
X175996591Y135577286D01*
X176123818Y135596128D01*
X176233794Y135612358D01*
X176309153Y135623420D01*
X176395621Y135636521D01*
X176470899Y135648777D01*
X176525803Y135658645D01*
X176548863Y135663773D01*
X176567725Y135683004D01*
X176600175Y135733775D01*
X176646502Y135816622D01*
X176706994Y135932076D01*
X176781941Y136080671D01*
X176853774Y136226368D01*
X176934918Y136392284D01*
X177025225Y136576968D01*
X177119539Y136769876D01*
X177212706Y136960469D01*
X177299572Y137138200D01*
X177371856Y137286128D01*
X177433984Y137412711D01*
X177490996Y137527765D01*
X177540829Y137627214D01*
X177581419Y137706979D01*
X177610701Y137762983D01*
X177626614Y137791147D01*
X177628758Y137793705D01*
X177638367Y137777476D01*
G37*
%TO.C,JP7*%
G36*
X379000000Y155100000D02*
G01*
X377500000Y155100000D01*
X377500000Y155400000D01*
X379000000Y155400000D01*
X379000000Y155100000D01*
G37*
%TO.C,JP2*%
G36*
X360952872Y145248290D02*
G01*
X359452872Y145248290D01*
X359452872Y146748290D01*
X360952872Y146748290D01*
X360952872Y145248290D01*
G37*
%TO.C,G\u002A\u002A\u002A*%
G36*
X103638367Y137777476D02*
G01*
X103663077Y137730664D01*
X103701468Y137656074D01*
X103752122Y137556515D01*
X103813622Y137434793D01*
X103884550Y137293717D01*
X103963489Y137136094D01*
X104049022Y136964731D01*
X104139730Y136782436D01*
X104163121Y136735338D01*
X104688575Y135676973D01*
X105706123Y135532828D01*
X105901978Y135505092D01*
X106091089Y135478329D01*
X106269429Y135453107D01*
X106432970Y135429995D01*
X106577686Y135409562D01*
X106699550Y135392376D01*
X106794534Y135379007D01*
X106858611Y135370022D01*
X106877342Y135367416D01*
X106947507Y135356243D01*
X107000863Y135344964D01*
X107028818Y135335503D01*
X107031012Y135332984D01*
X107018081Y135317965D01*
X106980788Y135279112D01*
X106921370Y135218664D01*
X106842072Y135138860D01*
X106745134Y135041940D01*
X106632797Y134930144D01*
X106507305Y134805711D01*
X106370897Y134670883D01*
X106225816Y134527899D01*
X106191219Y134493859D01*
X106021264Y134326675D01*
X105875970Y134183565D01*
X105753429Y134062482D01*
X105651740Y133961381D01*
X105569002Y133878217D01*
X105503307Y133810941D01*
X105452755Y133757507D01*
X105415443Y133715870D01*
X105389465Y133683982D01*
X105372921Y133659799D01*
X105363907Y133641271D01*
X105360519Y133626355D01*
X105360854Y133613004D01*
X105362416Y133602707D01*
X105371061Y133552605D01*
X105383778Y133480267D01*
X105398030Y133400116D01*
X105400110Y133388500D01*
X105431636Y133212277D01*
X105459962Y133053354D01*
X105484317Y132916094D01*
X105503927Y132804860D01*
X105518019Y132724013D01*
X105522252Y132699313D01*
X105531947Y132643133D01*
X105546183Y132561805D01*
X105562934Y132466852D01*
X105577882Y132382660D01*
X105619961Y132145906D01*
X105655662Y131943819D01*
X105685317Y131774421D01*
X105709258Y131635736D01*
X105727820Y131525787D01*
X105741334Y131442596D01*
X105750135Y131384188D01*
X105754556Y131348584D01*
X105754928Y131333808D01*
X105754655Y131333266D01*
X105744796Y131335465D01*
X105717807Y131347246D01*
X105671347Y131369806D01*
X105603070Y131404338D01*
X105510631Y131452040D01*
X105391688Y131514107D01*
X105243897Y131591735D01*
X105121778Y131656101D01*
X105054776Y131691303D01*
X104963744Y131738914D01*
X104857734Y131794214D01*
X104745794Y131852479D01*
X104665424Y131894228D01*
X104540685Y131958993D01*
X104396670Y132033813D01*
X104247144Y132111533D01*
X104105871Y132185001D01*
X104032118Y132223376D01*
X103929352Y132276358D01*
X103835850Y132323623D01*
X103757391Y132362325D01*
X103699751Y132389618D01*
X103668708Y132402656D01*
X103667296Y132403064D01*
X103638436Y132398753D01*
X103582333Y132377398D01*
X103497850Y132338472D01*
X103383851Y132281448D01*
X103239205Y132205801D01*
X103220258Y132195726D01*
X103095272Y132129184D01*
X102969969Y132062505D01*
X102851720Y131999611D01*
X102747893Y131944419D01*
X102665862Y131900851D01*
X102635120Y131884544D01*
X102543719Y131836043D01*
X102447325Y131784812D01*
X102361205Y131738969D01*
X102327780Y131721144D01*
X102267705Y131689136D01*
X102183140Y131644154D01*
X102082510Y131590680D01*
X101974238Y131533187D01*
X101890053Y131488515D01*
X101792381Y131436672D01*
X101706001Y131390763D01*
X101636322Y131353666D01*
X101588759Y131328266D01*
X101568743Y131317455D01*
X101557204Y131325601D01*
X101554785Y131343124D01*
X101557805Y131367400D01*
X101566486Y131424933D01*
X101580263Y131512251D01*
X101598570Y131625882D01*
X101620842Y131762354D01*
X101646513Y131918193D01*
X101675017Y132089929D01*
X101705790Y132274088D01*
X101724024Y132382660D01*
X101756568Y132576401D01*
X101787800Y132762950D01*
X101817068Y132938351D01*
X101843715Y133098646D01*
X101867085Y133239879D01*
X101886523Y133358095D01*
X101901374Y133449337D01*
X101910981Y133509648D01*
X101913486Y133526096D01*
X101933719Y133663692D01*
X101832723Y133758305D01*
X101796690Y133792482D01*
X101737520Y133849115D01*
X101658822Y133924729D01*
X101564203Y134015847D01*
X101457273Y134118994D01*
X101341641Y134230693D01*
X101220915Y134347470D01*
X101200866Y134366879D01*
X101073254Y134490409D01*
X100944673Y134614839D01*
X100819762Y134735685D01*
X100703165Y134848457D01*
X100599519Y134948663D01*
X100513470Y135031819D01*
X100450943Y135092189D01*
X100378149Y135163277D01*
X100316519Y135225104D01*
X100270339Y135273237D01*
X100243894Y135303241D01*
X100239413Y135311074D01*
X100260368Y135317403D01*
X100307652Y135326502D01*
X100365343Y135335558D01*
X100429904Y135344979D01*
X100519708Y135358322D01*
X100623176Y135373857D01*
X100728730Y135389854D01*
X100735200Y135390839D01*
X100849802Y135408160D01*
X100972054Y135426389D01*
X101086753Y135443274D01*
X101172926Y135455738D01*
X101252098Y135467159D01*
X101358296Y135482666D01*
X101481704Y135500813D01*
X101612506Y135520159D01*
X101731726Y135537892D01*
X101862448Y135557364D01*
X101996591Y135577286D01*
X102123818Y135596128D01*
X102233794Y135612358D01*
X102309153Y135623420D01*
X102395621Y135636521D01*
X102470899Y135648777D01*
X102525803Y135658645D01*
X102548863Y135663773D01*
X102567725Y135683004D01*
X102600175Y135733775D01*
X102646502Y135816622D01*
X102706994Y135932076D01*
X102781941Y136080671D01*
X102853774Y136226368D01*
X102934918Y136392284D01*
X103025225Y136576968D01*
X103119539Y136769876D01*
X103212706Y136960469D01*
X103299572Y137138200D01*
X103371856Y137286128D01*
X103433984Y137412711D01*
X103490996Y137527765D01*
X103540829Y137627214D01*
X103581419Y137706979D01*
X103610701Y137762983D01*
X103626614Y137791147D01*
X103628758Y137793705D01*
X103638367Y137777476D01*
G37*
G36*
X231638367Y137777476D02*
G01*
X231663077Y137730664D01*
X231701468Y137656074D01*
X231752122Y137556515D01*
X231813622Y137434793D01*
X231884550Y137293717D01*
X231963489Y137136094D01*
X232049022Y136964731D01*
X232139730Y136782436D01*
X232163121Y136735338D01*
X232688575Y135676973D01*
X233706123Y135532828D01*
X233901978Y135505092D01*
X234091089Y135478329D01*
X234269429Y135453107D01*
X234432970Y135429995D01*
X234577686Y135409562D01*
X234699550Y135392376D01*
X234794534Y135379007D01*
X234858611Y135370022D01*
X234877342Y135367416D01*
X234947507Y135356243D01*
X235000863Y135344964D01*
X235028818Y135335503D01*
X235031012Y135332984D01*
X235018081Y135317965D01*
X234980788Y135279112D01*
X234921370Y135218664D01*
X234842072Y135138860D01*
X234745134Y135041940D01*
X234632797Y134930144D01*
X234507305Y134805711D01*
X234370897Y134670883D01*
X234225816Y134527899D01*
X234191219Y134493859D01*
X234021264Y134326675D01*
X233875970Y134183565D01*
X233753429Y134062482D01*
X233651740Y133961381D01*
X233569002Y133878217D01*
X233503307Y133810941D01*
X233452755Y133757507D01*
X233415443Y133715870D01*
X233389465Y133683982D01*
X233372921Y133659799D01*
X233363907Y133641271D01*
X233360519Y133626355D01*
X233360854Y133613004D01*
X233362416Y133602707D01*
X233371061Y133552605D01*
X233383778Y133480267D01*
X233398030Y133400116D01*
X233400110Y133388500D01*
X233431636Y133212277D01*
X233459962Y133053354D01*
X233484317Y132916094D01*
X233503927Y132804860D01*
X233518019Y132724013D01*
X233522252Y132699313D01*
X233531947Y132643133D01*
X233546183Y132561805D01*
X233562934Y132466852D01*
X233577882Y132382660D01*
X233619961Y132145906D01*
X233655662Y131943819D01*
X233685317Y131774421D01*
X233709258Y131635736D01*
X233727820Y131525787D01*
X233741334Y131442596D01*
X233750135Y131384188D01*
X233754556Y131348584D01*
X233754928Y131333808D01*
X233754655Y131333266D01*
X233744796Y131335465D01*
X233717807Y131347246D01*
X233671347Y131369806D01*
X233603070Y131404338D01*
X233510631Y131452040D01*
X233391688Y131514107D01*
X233243897Y131591735D01*
X233121778Y131656101D01*
X233054776Y131691303D01*
X232963744Y131738914D01*
X232857734Y131794214D01*
X232745794Y131852479D01*
X232665424Y131894228D01*
X232540685Y131958993D01*
X232396670Y132033813D01*
X232247144Y132111533D01*
X232105871Y132185001D01*
X232032118Y132223376D01*
X231929352Y132276358D01*
X231835850Y132323623D01*
X231757391Y132362325D01*
X231699751Y132389618D01*
X231668708Y132402656D01*
X231667296Y132403064D01*
X231638436Y132398753D01*
X231582333Y132377398D01*
X231497850Y132338472D01*
X231383851Y132281448D01*
X231239205Y132205801D01*
X231220258Y132195726D01*
X231095272Y132129184D01*
X230969969Y132062505D01*
X230851720Y131999611D01*
X230747893Y131944419D01*
X230665862Y131900851D01*
X230635120Y131884544D01*
X230543719Y131836043D01*
X230447325Y131784812D01*
X230361205Y131738969D01*
X230327780Y131721144D01*
X230267705Y131689136D01*
X230183140Y131644154D01*
X230082510Y131590680D01*
X229974238Y131533187D01*
X229890053Y131488515D01*
X229792381Y131436672D01*
X229706001Y131390763D01*
X229636322Y131353666D01*
X229588759Y131328266D01*
X229568743Y131317455D01*
X229557204Y131325601D01*
X229554785Y131343124D01*
X229557805Y131367400D01*
X229566486Y131424933D01*
X229580263Y131512251D01*
X229598570Y131625882D01*
X229620842Y131762354D01*
X229646513Y131918193D01*
X229675017Y132089929D01*
X229705790Y132274088D01*
X229724024Y132382660D01*
X229756568Y132576401D01*
X229787800Y132762950D01*
X229817068Y132938351D01*
X229843715Y133098646D01*
X229867085Y133239879D01*
X229886523Y133358095D01*
X229901374Y133449337D01*
X229910981Y133509648D01*
X229913486Y133526096D01*
X229933719Y133663692D01*
X229832723Y133758305D01*
X229796690Y133792482D01*
X229737520Y133849115D01*
X229658822Y133924729D01*
X229564203Y134015847D01*
X229457273Y134118994D01*
X229341641Y134230693D01*
X229220915Y134347470D01*
X229200866Y134366879D01*
X229073254Y134490409D01*
X228944673Y134614839D01*
X228819762Y134735685D01*
X228703165Y134848457D01*
X228599519Y134948663D01*
X228513470Y135031819D01*
X228450943Y135092189D01*
X228378149Y135163277D01*
X228316519Y135225104D01*
X228270339Y135273237D01*
X228243894Y135303241D01*
X228239413Y135311074D01*
X228260368Y135317403D01*
X228307652Y135326502D01*
X228365343Y135335558D01*
X228429904Y135344979D01*
X228519708Y135358322D01*
X228623176Y135373857D01*
X228728730Y135389854D01*
X228735200Y135390839D01*
X228849802Y135408160D01*
X228972054Y135426389D01*
X229086753Y135443274D01*
X229172926Y135455738D01*
X229252098Y135467159D01*
X229358296Y135482666D01*
X229481704Y135500813D01*
X229612506Y135520159D01*
X229731726Y135537892D01*
X229862448Y135557364D01*
X229996591Y135577286D01*
X230123818Y135596128D01*
X230233794Y135612358D01*
X230309153Y135623420D01*
X230395621Y135636521D01*
X230470899Y135648777D01*
X230525803Y135658645D01*
X230548863Y135663773D01*
X230567725Y135683004D01*
X230600175Y135733775D01*
X230646502Y135816622D01*
X230706994Y135932076D01*
X230781941Y136080671D01*
X230853774Y136226368D01*
X230934918Y136392284D01*
X231025225Y136576968D01*
X231119539Y136769876D01*
X231212706Y136960469D01*
X231299572Y137138200D01*
X231371856Y137286128D01*
X231433984Y137412711D01*
X231490996Y137527765D01*
X231540829Y137627214D01*
X231581419Y137706979D01*
X231610701Y137762983D01*
X231626614Y137791147D01*
X231628758Y137793705D01*
X231638367Y137777476D01*
G37*
G36*
X28638367Y137777476D02*
G01*
X28663077Y137730664D01*
X28701468Y137656074D01*
X28752122Y137556515D01*
X28813622Y137434793D01*
X28884550Y137293717D01*
X28963489Y137136094D01*
X29049022Y136964731D01*
X29139730Y136782436D01*
X29163121Y136735338D01*
X29688575Y135676973D01*
X30706123Y135532828D01*
X30901978Y135505092D01*
X31091089Y135478329D01*
X31269429Y135453107D01*
X31432970Y135429995D01*
X31577686Y135409562D01*
X31699550Y135392376D01*
X31794534Y135379007D01*
X31858611Y135370022D01*
X31877342Y135367416D01*
X31947507Y135356243D01*
X32000863Y135344964D01*
X32028818Y135335503D01*
X32031012Y135332984D01*
X32018081Y135317965D01*
X31980788Y135279112D01*
X31921370Y135218664D01*
X31842072Y135138860D01*
X31745134Y135041940D01*
X31632797Y134930144D01*
X31507305Y134805711D01*
X31370897Y134670883D01*
X31225816Y134527899D01*
X31191219Y134493859D01*
X31021264Y134326675D01*
X30875970Y134183565D01*
X30753429Y134062482D01*
X30651740Y133961381D01*
X30569002Y133878217D01*
X30503307Y133810941D01*
X30452755Y133757507D01*
X30415443Y133715870D01*
X30389465Y133683982D01*
X30372921Y133659799D01*
X30363907Y133641271D01*
X30360519Y133626355D01*
X30360854Y133613004D01*
X30362416Y133602707D01*
X30371061Y133552605D01*
X30383778Y133480267D01*
X30398030Y133400116D01*
X30400110Y133388500D01*
X30431636Y133212277D01*
X30459962Y133053354D01*
X30484317Y132916094D01*
X30503927Y132804860D01*
X30518019Y132724013D01*
X30522252Y132699313D01*
X30531947Y132643133D01*
X30546183Y132561805D01*
X30562934Y132466852D01*
X30577882Y132382660D01*
X30619961Y132145906D01*
X30655662Y131943819D01*
X30685317Y131774421D01*
X30709258Y131635736D01*
X30727820Y131525787D01*
X30741334Y131442596D01*
X30750135Y131384188D01*
X30754556Y131348584D01*
X30754928Y131333808D01*
X30754655Y131333266D01*
X30744796Y131335465D01*
X30717807Y131347246D01*
X30671347Y131369806D01*
X30603070Y131404338D01*
X30510631Y131452040D01*
X30391688Y131514107D01*
X30243897Y131591735D01*
X30121778Y131656101D01*
X30054776Y131691303D01*
X29963744Y131738914D01*
X29857734Y131794214D01*
X29745794Y131852479D01*
X29665424Y131894228D01*
X29540685Y131958993D01*
X29396670Y132033813D01*
X29247144Y132111533D01*
X29105871Y132185001D01*
X29032118Y132223376D01*
X28929352Y132276358D01*
X28835850Y132323623D01*
X28757391Y132362325D01*
X28699751Y132389618D01*
X28668708Y132402656D01*
X28667296Y132403064D01*
X28638436Y132398753D01*
X28582333Y132377398D01*
X28497850Y132338472D01*
X28383851Y132281448D01*
X28239205Y132205801D01*
X28220258Y132195726D01*
X28095272Y132129184D01*
X27969969Y132062505D01*
X27851720Y131999611D01*
X27747893Y131944419D01*
X27665862Y131900851D01*
X27635120Y131884544D01*
X27543719Y131836043D01*
X27447325Y131784812D01*
X27361205Y131738969D01*
X27327780Y131721144D01*
X27267705Y131689136D01*
X27183140Y131644154D01*
X27082510Y131590680D01*
X26974238Y131533187D01*
X26890053Y131488515D01*
X26792381Y131436672D01*
X26706001Y131390763D01*
X26636322Y131353666D01*
X26588759Y131328266D01*
X26568743Y131317455D01*
X26557204Y131325601D01*
X26554785Y131343124D01*
X26557805Y131367400D01*
X26566486Y131424933D01*
X26580263Y131512251D01*
X26598570Y131625882D01*
X26620842Y131762354D01*
X26646513Y131918193D01*
X26675017Y132089929D01*
X26705790Y132274088D01*
X26724024Y132382660D01*
X26756568Y132576401D01*
X26787800Y132762950D01*
X26817068Y132938351D01*
X26843715Y133098646D01*
X26867085Y133239879D01*
X26886523Y133358095D01*
X26901374Y133449337D01*
X26910981Y133509648D01*
X26913486Y133526096D01*
X26933719Y133663692D01*
X26832723Y133758305D01*
X26796690Y133792482D01*
X26737520Y133849115D01*
X26658822Y133924729D01*
X26564203Y134015847D01*
X26457273Y134118994D01*
X26341641Y134230693D01*
X26220915Y134347470D01*
X26200866Y134366879D01*
X26073254Y134490409D01*
X25944673Y134614839D01*
X25819762Y134735685D01*
X25703165Y134848457D01*
X25599519Y134948663D01*
X25513470Y135031819D01*
X25450943Y135092189D01*
X25378149Y135163277D01*
X25316519Y135225104D01*
X25270339Y135273237D01*
X25243894Y135303241D01*
X25239413Y135311074D01*
X25260368Y135317403D01*
X25307652Y135326502D01*
X25365343Y135335558D01*
X25429904Y135344979D01*
X25519708Y135358322D01*
X25623176Y135373857D01*
X25728730Y135389854D01*
X25735200Y135390839D01*
X25849802Y135408160D01*
X25972054Y135426389D01*
X26086753Y135443274D01*
X26172926Y135455738D01*
X26252098Y135467159D01*
X26358296Y135482666D01*
X26481704Y135500813D01*
X26612506Y135520159D01*
X26731726Y135537892D01*
X26862448Y135557364D01*
X26996591Y135577286D01*
X27123818Y135596128D01*
X27233794Y135612358D01*
X27309153Y135623420D01*
X27395621Y135636521D01*
X27470899Y135648777D01*
X27525803Y135658645D01*
X27548863Y135663773D01*
X27567725Y135683004D01*
X27600175Y135733775D01*
X27646502Y135816622D01*
X27706994Y135932076D01*
X27781941Y136080671D01*
X27853774Y136226368D01*
X27934918Y136392284D01*
X28025225Y136576968D01*
X28119539Y136769876D01*
X28212706Y136960469D01*
X28299572Y137138200D01*
X28371856Y137286128D01*
X28433984Y137412711D01*
X28490996Y137527765D01*
X28540829Y137627214D01*
X28581419Y137706979D01*
X28610701Y137762983D01*
X28626614Y137791147D01*
X28628758Y137793705D01*
X28638367Y137777476D01*
G37*
%TD*%
D11*
%TO.C,H1*%
X373422872Y162498290D03*
%TD*%
D12*
%TO.C,U13*%
X345237874Y153398290D03*
X345237874Y152128287D03*
X345237874Y150858285D03*
X345237874Y149588282D03*
X350602872Y149588282D03*
X350602872Y150858285D03*
X350602872Y152128287D03*
X350602872Y153398290D03*
%TD*%
D13*
%TO.C,R8*%
X69125000Y154537499D03*
X70775000Y154537499D03*
%TD*%
D14*
%TO.C,R39*%
X269419509Y159114927D03*
X270586235Y160281653D03*
%TD*%
D11*
%TO.C,H15*%
X242030512Y161485786D03*
%TD*%
D15*
%TO.C,C15*%
X356750000Y136862501D03*
X356750000Y135137499D03*
%TD*%
%TO.C,C14*%
X365202872Y102860791D03*
X365202872Y101135789D03*
%TD*%
D16*
%TO.C,C21*%
X352702872Y152635789D03*
X352702872Y154360791D03*
%TD*%
D12*
%TO.C,U10*%
X132817501Y151405004D03*
X132817501Y150135001D03*
X132817501Y148864999D03*
X132817501Y147594996D03*
X138182499Y147594996D03*
X138182499Y148864999D03*
X138182499Y150135001D03*
X138182499Y151405004D03*
%TD*%
D14*
%TO.C,R38*%
X268702872Y160798290D03*
X269869598Y161965016D03*
%TD*%
D13*
%TO.C,R28*%
X364564924Y118874905D03*
X366214924Y118874905D03*
%TD*%
D17*
%TO.C,R11*%
X358027872Y147998290D03*
X356377872Y147998290D03*
%TD*%
D18*
%TO.C,C29*%
X364389924Y117149905D03*
X364389924Y115599905D03*
%TD*%
D19*
%TO.C,R20*%
X356802872Y139485790D03*
X356802872Y141310790D03*
%TD*%
D20*
%TO.C,U7*%
X211755831Y121551249D03*
X212653858Y122449276D03*
X213551886Y123347304D03*
X214449913Y124245331D03*
%TD*%
D21*
%TO.C,J12*%
X-3000000Y153500000D03*
D22*
X-3000000Y156040000D03*
X-3000000Y158579999D03*
%TD*%
D23*
%TO.C,JP6*%
X374700000Y155899999D03*
D24*
X374700000Y154600001D03*
%TD*%
D13*
%TO.C,R15*%
X211425000Y153750000D03*
X213075000Y153750000D03*
%TD*%
D25*
%TO.C,D8*%
X387825002Y130750000D03*
X386250000Y130750000D03*
%TD*%
D19*
%TO.C,R24*%
X360402872Y134285790D03*
X360402872Y136110790D03*
%TD*%
D26*
%TO.C,D3*%
X347665371Y162278290D03*
X349240373Y162278290D03*
%TD*%
D11*
%TO.C,H9*%
X70020512Y82985786D03*
%TD*%
D15*
%TO.C,C26*%
X362002872Y132260791D03*
X362002872Y130535789D03*
%TD*%
D27*
%TO.C,D14*%
X337699735Y159197277D03*
X338251124Y158645888D03*
D28*
X336752137Y159749025D03*
X338802872Y157698290D03*
%TD*%
D27*
%TO.C,D4*%
X53699735Y159197277D03*
X54251124Y158645888D03*
D28*
X52752137Y159749025D03*
X54802872Y157698290D03*
%TD*%
D20*
%TO.C,U6*%
X-1244169Y121551249D03*
X-346142Y122449276D03*
X551886Y123347304D03*
X1449913Y124245331D03*
%TD*%
D29*
%TO.C,SW18*%
X-13525006Y107849810D03*
D30*
X-14974994Y107849810D03*
X-14974994Y103949886D03*
D31*
X-13525006Y103949886D03*
%TD*%
D20*
%TO.C,U4*%
X140755831Y121551249D03*
X141653858Y122449276D03*
X142551886Y123347304D03*
X143449913Y124245331D03*
%TD*%
D32*
%TO.C,C16*%
X276859370Y129654788D03*
X278202872Y130998290D03*
%TD*%
%TO.C,C1*%
X-7218879Y128576539D03*
X-5875377Y129920041D03*
%TD*%
D33*
%TO.C,C30*%
X369899924Y115874905D03*
X371799922Y115874905D03*
%TD*%
D29*
%TO.C,SW16*%
X-13525006Y119249658D03*
D30*
X-14974994Y119249658D03*
X-14974994Y115349734D03*
D31*
X-13525006Y115349734D03*
%TD*%
D34*
%TO.C,J3*%
X378926353Y98898483D03*
X378926353Y97798406D03*
X378926353Y96698330D03*
X378926353Y95598254D03*
X378926353Y94498432D03*
X378926353Y93398356D03*
X378926353Y92298279D03*
X378926353Y91198457D03*
X378926353Y90098381D03*
D35*
X379926353Y88898228D03*
D36*
X389526303Y88898228D03*
X389526303Y104398356D03*
D37*
X379926353Y103498432D03*
%TD*%
D11*
%TO.C,H17*%
X269530512Y110985786D03*
%TD*%
%TO.C,H13*%
X171020512Y161485786D03*
%TD*%
D12*
%TO.C,U11*%
X203817501Y151405004D03*
X203817501Y150135001D03*
X203817501Y148864999D03*
X203817501Y147594996D03*
X209182499Y147594996D03*
X209182499Y148864999D03*
X209182499Y150135001D03*
X209182499Y151405004D03*
%TD*%
D14*
%TO.C,R34*%
X197419509Y162114927D03*
X198586235Y163281653D03*
%TD*%
D29*
%TO.C,SW20*%
X-13525006Y96449962D03*
D30*
X-14974994Y96449962D03*
X-14974994Y92550038D03*
D31*
X-13525006Y92550038D03*
%TD*%
D38*
%TO.C,D5*%
X74828215Y158621558D03*
X75379604Y159172947D03*
D39*
X74276467Y157673960D03*
X76327202Y159724695D03*
%TD*%
D11*
%TO.C,H5*%
X56520512Y110985786D03*
%TD*%
D40*
%TO.C,SW5*%
X359702872Y103983202D03*
X359702872Y99613378D03*
%TD*%
D38*
%TO.C,D13*%
X287854620Y158645888D03*
X288406009Y159197277D03*
D39*
X287302872Y157698290D03*
X289353607Y159749025D03*
%TD*%
D15*
%TO.C,C28*%
X358402872Y136060791D03*
X358402872Y134335789D03*
%TD*%
D41*
%TO.C,R27*%
X366750000Y109425000D03*
X366750000Y111075000D03*
%TD*%
D26*
%TO.C,D2*%
X348225371Y130428290D03*
X349800373Y130428290D03*
%TD*%
D16*
%TO.C,C17*%
X391250000Y84137499D03*
X391250000Y85862501D03*
%TD*%
D14*
%TO.C,R33*%
X127619509Y158414927D03*
X128786235Y159581653D03*
%TD*%
D17*
%TO.C,R2*%
X349762872Y132628290D03*
X348112872Y132628290D03*
%TD*%
D27*
%TO.C,D12*%
X266599735Y159197277D03*
X267151124Y158645888D03*
D28*
X265652137Y159749025D03*
X267702872Y157698290D03*
%TD*%
D17*
%TO.C,R29*%
X366214924Y120874905D03*
X364564924Y120874905D03*
%TD*%
D21*
%TO.C,J6*%
X378422872Y126000000D03*
D22*
X375882872Y126000000D03*
X373342873Y126000000D03*
X370802872Y126000000D03*
X368262872Y126000000D03*
X365722872Y126000000D03*
%TD*%
D42*
%TO.C,U3*%
X385759331Y151748354D03*
X384489328Y151748354D03*
X383219326Y151748354D03*
X381949323Y151748354D03*
X380679321Y151748354D03*
X379409318Y151748354D03*
X378139316Y151748354D03*
X376869313Y151748354D03*
X375599310Y151748354D03*
X374329308Y151748354D03*
X373059305Y151748354D03*
X371789303Y151748354D03*
X370519300Y151748354D03*
X369249298Y151748354D03*
D43*
X367969389Y149983304D03*
X367969389Y148713301D03*
X367969389Y147443299D03*
X367969389Y146173296D03*
X367969389Y144903294D03*
X367969389Y143633291D03*
X367969389Y142363289D03*
X367969389Y141093286D03*
X367969389Y139823284D03*
X367969389Y138553281D03*
X367969389Y137283279D03*
X367999361Y136013276D03*
D42*
X369249298Y134248226D03*
X370519300Y134248226D03*
X371789303Y134248226D03*
X373059305Y134248226D03*
X374329308Y134248226D03*
X375599310Y134248226D03*
X376869313Y134248226D03*
X378139316Y134248226D03*
X379409318Y134248226D03*
X380679321Y134248226D03*
X381949323Y134248226D03*
X383219326Y134248226D03*
X384489328Y134248226D03*
X385759331Y134248226D03*
D44*
X379439290Y145898468D03*
X378039239Y145898468D03*
X376639189Y145898468D03*
D45*
X378024360Y144598290D03*
D44*
X379439290Y144498417D03*
X378039239Y144498417D03*
X376639189Y144498417D03*
X379439290Y143098366D03*
X378039239Y143098366D03*
X376639189Y143098366D03*
%TD*%
D46*
%TO.C,R13*%
X382652872Y158610790D03*
X382652872Y156785790D03*
%TD*%
D19*
%TO.C,R23*%
X362002872Y133885790D03*
X362002872Y135710790D03*
%TD*%
D13*
%TO.C,R16*%
X282175000Y153750000D03*
X283825000Y153750000D03*
%TD*%
D29*
%TO.C,SW15*%
X6192865Y107948150D03*
D30*
X4742877Y107948150D03*
X4742877Y104048226D03*
D31*
X6192865Y104048226D03*
%TD*%
D16*
%TO.C,C24*%
X69250000Y151024998D03*
X69250000Y152750000D03*
%TD*%
D33*
%TO.C,C25*%
X366939925Y112874905D03*
X368839923Y112874905D03*
%TD*%
D14*
%TO.C,R40*%
X339419509Y162614927D03*
X340586235Y163781653D03*
%TD*%
D21*
%TO.C,J5*%
X388688853Y85358305D03*
D47*
X388688853Y82818305D03*
X388688853Y80278305D03*
X388688853Y77738305D03*
%TD*%
D48*
%TO.C,J1*%
X387472106Y119123171D03*
X387472106Y127773413D03*
D49*
X391651938Y127773413D03*
X391651938Y119123171D03*
D50*
X386703754Y120098279D03*
X386703754Y120898381D03*
X386703754Y122198356D03*
X386703754Y123198356D03*
X386703754Y123698228D03*
X386703754Y124697974D03*
X386703754Y125998457D03*
X386703754Y126798305D03*
X386703754Y126498330D03*
X386703754Y125698228D03*
X386703754Y125198356D03*
X386703754Y124198356D03*
X386703754Y122698228D03*
X386703754Y121698228D03*
X386703754Y121198356D03*
X386703754Y120398254D03*
%TD*%
D51*
%TO.C,C2*%
X358652871Y158748290D03*
X356752873Y158748290D03*
%TD*%
D11*
%TO.C,H3*%
X363722872Y91898290D03*
%TD*%
%TO.C,H14*%
X283030512Y82985786D03*
%TD*%
D16*
%TO.C,C18*%
X140202872Y152235789D03*
X140202872Y153960791D03*
%TD*%
D12*
%TO.C,U12*%
X274817501Y151655004D03*
X274817501Y150385001D03*
X274817501Y149114999D03*
X274817501Y147844996D03*
X280182499Y147844996D03*
X280182499Y149114999D03*
X280182499Y150385001D03*
X280182499Y151655004D03*
%TD*%
D51*
%TO.C,C31*%
X146449999Y164750000D03*
X144550001Y164750000D03*
%TD*%
D52*
%TO.C,U99*%
X144588369Y94563339D03*
X143318366Y94563339D03*
X142048364Y94563339D03*
X140778360Y94563339D03*
%TD*%
D53*
%TO.C,U1*%
X361052872Y164298290D03*
X361052873Y161998290D03*
D54*
X367352871Y161998290D03*
D53*
X361052872Y159698290D03*
%TD*%
D11*
%TO.C,H12*%
X141020512Y82985786D03*
%TD*%
D55*
%TO.C,C31*%
X137905744Y92498290D03*
X137905744Y94398288D03*
%TD*%
D56*
%TO.C,R19*%
X385912500Y132500000D03*
X384087500Y132500000D03*
%TD*%
D14*
%TO.C,R32*%
X126519509Y160614927D03*
X127686235Y161781653D03*
%TD*%
D11*
%TO.C,H18*%
X340530512Y110985786D03*
%TD*%
D14*
%TO.C,R37*%
X268119509Y162614927D03*
X269286235Y163781653D03*
%TD*%
D41*
%TO.C,R17*%
X350702872Y155423290D03*
X350702872Y157073290D03*
%TD*%
D16*
%TO.C,C9*%
X384802872Y158835789D03*
X384802872Y160560791D03*
%TD*%
D17*
%TO.C,R31*%
X371214924Y118874905D03*
X369564924Y118874905D03*
%TD*%
D15*
%TO.C,C27*%
X360402872Y132660791D03*
X360402872Y130935789D03*
%TD*%
D41*
%TO.C,R30*%
X367889924Y119049905D03*
X367889924Y120699905D03*
%TD*%
D29*
%TO.C,SW12*%
X219227866Y107948252D03*
D30*
X217777878Y107948252D03*
X217777878Y104048328D03*
D31*
X219227866Y104048328D03*
%TD*%
D19*
%TO.C,R18*%
X358602872Y138485790D03*
X358602872Y140310790D03*
%TD*%
D11*
%TO.C,H16*%
X212030512Y82985786D03*
%TD*%
D16*
%TO.C,C20*%
X282250000Y150250000D03*
X282250000Y151975002D03*
%TD*%
D13*
%TO.C,R9*%
X140127872Y155748290D03*
X141777872Y155748290D03*
%TD*%
D29*
%TO.C,SW11*%
X290227866Y107948252D03*
D30*
X288777878Y107948252D03*
X288777878Y104048328D03*
D31*
X290227866Y104048328D03*
%TD*%
D38*
%TO.C,D11*%
X216903885Y158695153D03*
X217455274Y159246542D03*
D39*
X216352137Y157747555D03*
X218402872Y159798290D03*
%TD*%
D14*
%TO.C,R22*%
X55019509Y162614927D03*
X56186235Y163781653D03*
%TD*%
D13*
%TO.C,R3*%
X381877872Y121998290D03*
X383527872Y121998290D03*
%TD*%
D11*
%TO.C,H6*%
X-969488Y82985786D03*
%TD*%
D12*
%TO.C,U9*%
X61817501Y151655004D03*
X61817501Y150385001D03*
X61817501Y149114999D03*
X61817501Y147844996D03*
X67182499Y147844996D03*
X67182499Y149114999D03*
X67182499Y150385001D03*
X67182499Y151655004D03*
%TD*%
D57*
%TO.C,SW10*%
X294085522Y82870118D03*
D58*
X293060225Y81844821D03*
D59*
X295817888Y79087158D03*
D60*
X296843185Y80112455D03*
%TD*%
D15*
%TO.C,C7*%
X362202872Y103060791D03*
X362202872Y101335789D03*
%TD*%
%TO.C,C10*%
X354202872Y103060791D03*
X354202872Y101335789D03*
%TD*%
D61*
%TO.C,J9*%
X-12599667Y145698316D03*
X-12599667Y142698316D03*
D62*
X-7900657Y144215461D03*
%TD*%
D29*
%TO.C,SW14*%
X77192865Y107948354D03*
D30*
X75742877Y107948354D03*
X75742877Y104048430D03*
D31*
X77192865Y104048430D03*
%TD*%
D11*
%TO.C,H8*%
X100020512Y161485786D03*
%TD*%
D63*
%TO.C,U2*%
X365924943Y114749810D03*
X366574930Y114749810D03*
X367224918Y114749810D03*
X367874905Y114749810D03*
X367874905Y117000000D03*
X367224918Y117000000D03*
X366574930Y117000000D03*
X365924943Y117000000D03*
D64*
X366900051Y115875032D03*
%TD*%
D27*
%TO.C,D7*%
X124653241Y159172947D03*
X125204630Y158621558D03*
D28*
X123705643Y159724695D03*
X125756378Y157673960D03*
%TD*%
D14*
%TO.C,R36*%
X198819509Y158114927D03*
X199986235Y159281653D03*
%TD*%
D29*
%TO.C,SW17*%
X-13525006Y113549734D03*
D30*
X-14974994Y113549734D03*
X-14974994Y109649810D03*
D31*
X-13525006Y109649810D03*
%TD*%
D23*
%TO.C,JP7*%
X378250000Y155899999D03*
D24*
X378250000Y154600001D03*
%TD*%
D32*
%TO.C,C5*%
X135031121Y128576539D03*
X136374623Y129920041D03*
%TD*%
D14*
%TO.C,R42*%
X340819509Y158614927D03*
X341986235Y159781653D03*
%TD*%
D11*
%TO.C,H10*%
X127520512Y110985786D03*
%TD*%
D16*
%TO.C,C8*%
X384802872Y127935789D03*
X384802872Y129660791D03*
%TD*%
D14*
%TO.C,R21*%
X55819509Y160314927D03*
X56986235Y161481653D03*
%TD*%
D29*
%TO.C,SW13*%
X148227866Y107948252D03*
D30*
X146777878Y107948252D03*
X146777878Y104048328D03*
D31*
X148227866Y104048328D03*
%TD*%
D13*
%TO.C,R1*%
X381877872Y125000000D03*
X383527872Y125000000D03*
%TD*%
D33*
%TO.C,C4*%
X369502872Y158248290D03*
X371402872Y158248290D03*
%TD*%
D65*
%TO.C,SW1*%
X388226404Y109748305D03*
X388226404Y112248432D03*
X388226404Y114748305D03*
X391426302Y109748305D03*
X391426302Y112248432D03*
X391426302Y114748305D03*
%TD*%
D66*
%TO.C,R12*%
X362202872Y150823290D03*
X362202872Y149173290D03*
%TD*%
D38*
%TO.C,D9*%
X145751483Y158646901D03*
X146302872Y159198290D03*
D39*
X145199735Y157699303D03*
X147250470Y159750038D03*
%TD*%
D14*
%TO.C,R41*%
X340019509Y160614927D03*
X341186235Y161781653D03*
%TD*%
D67*
%TO.C,Q1*%
X357162500Y151950000D03*
X357162500Y150050000D03*
X359037500Y151000000D03*
%TD*%
D40*
%TO.C,SW7*%
X351702872Y103983202D03*
X351702872Y99613378D03*
%TD*%
D61*
%TO.C,J8*%
X-12473150Y153798303D03*
X-12473150Y150798303D03*
D62*
X-7774140Y152315448D03*
%TD*%
D14*
%TO.C,R7*%
X56819509Y158214927D03*
X57986235Y159381653D03*
%TD*%
D61*
%TO.C,J7*%
X-12473150Y162298303D03*
X-12473150Y159298303D03*
D62*
X-7774140Y160815448D03*
%TD*%
D27*
%TO.C,D10*%
X195650470Y159146542D03*
X196201859Y158595153D03*
D28*
X194702872Y159698290D03*
X196753607Y157647555D03*
%TD*%
D11*
%TO.C,H11*%
X198520512Y110985786D03*
%TD*%
D13*
%TO.C,R5*%
X352877872Y150998290D03*
X354527872Y150998290D03*
%TD*%
D57*
%TO.C,SW9*%
X223065989Y82819070D03*
D58*
X222040692Y81793773D03*
D59*
X224798355Y79036110D03*
D60*
X225823652Y80061407D03*
%TD*%
D68*
%TO.C,D15*%
X382502872Y130798289D03*
X382502872Y127998291D03*
%TD*%
D69*
%TO.C,JP2*%
X360202872Y144698290D03*
D70*
X360202872Y145998290D03*
D71*
X360202872Y147298290D03*
%TD*%
D19*
%TO.C,R25*%
X360402872Y137685790D03*
X360402872Y139510790D03*
%TD*%
D61*
%TO.C,J10*%
X-12599667Y138444086D03*
X-12599667Y135444086D03*
D62*
X-7900657Y136961231D03*
%TD*%
D20*
%TO.C,U5*%
X69755831Y121551249D03*
X70653858Y122449276D03*
X71551886Y123347304D03*
X72449913Y124245331D03*
%TD*%
D11*
%TO.C,H19*%
X313030512Y161485786D03*
%TD*%
D57*
%TO.C,SW4*%
X81085522Y82870118D03*
D58*
X80060225Y81844821D03*
D59*
X82817888Y79087158D03*
D60*
X83843185Y80112455D03*
%TD*%
D15*
%TO.C,C23*%
X355002872Y139060791D03*
X355002872Y137335789D03*
%TD*%
D16*
%TO.C,C19*%
X211250000Y150387499D03*
X211250000Y152112501D03*
%TD*%
D17*
%TO.C,R4*%
X349277872Y164998290D03*
X347627872Y164998290D03*
%TD*%
D40*
%TO.C,SW2*%
X367702872Y103983202D03*
X367702872Y99613378D03*
%TD*%
D29*
%TO.C,SW19*%
X-13525006Y102149886D03*
D30*
X-14974994Y102149886D03*
X-14974994Y98249962D03*
D31*
X-13525006Y98249962D03*
%TD*%
D41*
%TO.C,R10*%
X391250000Y80925000D03*
X391250000Y82575000D03*
%TD*%
D66*
%TO.C,R6*%
X365250000Y112825000D03*
X365250000Y111175000D03*
%TD*%
D20*
%TO.C,U8*%
X282755831Y121551249D03*
X283653858Y122449276D03*
X284551886Y123347304D03*
X285449913Y124245331D03*
%TD*%
D11*
%TO.C,H7*%
X29030512Y161485786D03*
%TD*%
D41*
%TO.C,R43*%
X391250000Y77675000D03*
X391250000Y79325000D03*
%TD*%
D14*
%TO.C,R35*%
X198019509Y160014927D03*
X199186235Y161181653D03*
%TD*%
D52*
%TO.C,U14*%
X153135497Y163613340D03*
X151865494Y163613340D03*
X150595492Y163613340D03*
X149325488Y163613340D03*
%TD*%
D32*
%TO.C,C3*%
X64031121Y128576539D03*
X65374623Y129920041D03*
%TD*%
D33*
%TO.C,C12*%
X384402872Y155398290D03*
X386302872Y155398290D03*
%TD*%
D40*
%TO.C,SW6*%
X380250000Y160065088D03*
X380250000Y164434912D03*
%TD*%
D57*
%TO.C,SW3*%
X10117037Y82876707D03*
D58*
X9091740Y81851410D03*
D59*
X11849403Y79093747D03*
D60*
X12874700Y80119044D03*
%TD*%
D38*
%TO.C,D1*%
X3803885Y158595153D03*
X4355274Y159146542D03*
D39*
X3252137Y157647555D03*
X5302872Y159698290D03*
%TD*%
D72*
%TO.C,C13*%
X384590372Y153498290D03*
X386315372Y153498290D03*
%TD*%
D14*
%TO.C,R26*%
X125619509Y163014927D03*
X126786235Y164181653D03*
%TD*%
D57*
%TO.C,SW8*%
X152085522Y82870118D03*
D58*
X151060225Y81844821D03*
D59*
X153817888Y79087158D03*
D60*
X154843185Y80112455D03*
%TD*%
D32*
%TO.C,C6*%
X206031121Y128576539D03*
X207374623Y129920041D03*
%TD*%
D21*
%TO.C,J11*%
X350162872Y122498290D03*
D22*
X352702872Y122498290D03*
X355242871Y122498290D03*
%TD*%
D73*
%TO.C,C11*%
X356202872Y162248291D03*
X356202872Y164748291D03*
%TD*%
%TO.C,C22*%
X350749999Y117250000D03*
X348249999Y117250000D03*
%TD*%
M02*
