M48
; DRILL file {KiCad 9.0.2} date 2025-07-03T01:09:01+0200
; FORMAT={-:-/ absolute / inch / decimal}
; #@! TF.CreationDate,2025-07-03T01:09:01+02:00
; #@! TF.GenerationSoftware,Kicad,Pcbnew,9.0.2
; #@! TF.FileFunction,NonPlated,1,2,NPTH
FMAT,2
INCH
; #@! TA.AperFunction,NonPlated,NPTH,ComponentDrill
T1C0.0295
; #@! TA.AperFunction,NonPlated,NPTH,ComponentDrill
T2C0.0354
; #@! TA.AperFunction,NonPlated,NPTH,ComponentDrill
T3C0.0472
; #@! TA.AperFunction,NonPlated,NPTH,ComponentDrill
T4C0.1260
%
G90
G05
T1
X15.2745Y4.9743
X15.2745Y4.746
T2
X-0.5006Y4.6496
X-0.5006Y4.5866
X-0.5006Y4.4252
X-0.5006Y4.3622
X-0.5006Y4.2008
X-0.5006Y4.1378
X-0.5006Y3.9764
X-0.5006Y3.9134
X-0.5006Y3.752
X-0.5006Y3.689
X0.2757Y4.2047
X0.2757Y4.1417
X0.4529Y3.2534
X0.4974Y3.2089
X3.071Y4.2047
X3.071Y4.1417
X3.2469Y3.2531
X3.2915Y3.2086
X5.8676Y4.2047
X5.8676Y4.1417
X6.0422Y3.2531
X6.0867Y3.2086
X8.6629Y4.2047
X8.6629Y4.1417
X8.8367Y3.2511
X8.8812Y3.2066
X11.4582Y4.2047
X11.4582Y4.1417
X11.6327Y3.2531
X11.6773Y3.2086
T3
X15.3514Y3.9251
X15.3514Y3.6102
T4
X14.6143Y3.618
X15.0513Y4.622
M30
